<mxfile host="65bd71144e">
    <diagram name="Page-1" id="2cc2dc42-3aac-f2a9-1cec-7a8b7cbee084">
        <mxGraphModel dx="1034" dy="457" grid="1" gridSize="10" guides="1" tooltips="1" connect="1" arrows="1" fold="1" page="1" pageScale="1" pageWidth="1100" pageHeight="850" background="none" math="0" shadow="0">
            <root>
                <mxCell id="0"/>
                <mxCell id="1" parent="0"/>
                <mxCell id="ZToANKEZAdNmLB96gID1-4" value="gcnaltemporda.cat" style="strokeWidth=1;shadow=0;dashed=0;align=center;html=1;shape=mxgraph.mockup.containers.window;align=left;verticalAlign=top;spacingLeft=8;strokeColor2=#008cff;strokeColor3=#c4c4c4;fontColor=#666666;mainText=;fontSize=17;labelBackgroundColor=none;" parent="1" vertex="1">
                    <mxGeometry x="15" y="10" width="790" height="950" as="geometry"/>
                </mxCell>
                <mxCell id="ZToANKEZAdNmLB96gID1-6" value="" style="rounded=0;whiteSpace=wrap;html=1;" parent="1" vertex="1">
                    <mxGeometry x="15" y="40" width="790" height="70" as="geometry"/>
                </mxCell>
                <mxCell id="ZToANKEZAdNmLB96gID1-14" value="" style="verticalLabelPosition=bottom;shadow=0;dashed=0;align=center;html=1;verticalAlign=top;strokeWidth=1;shape=mxgraph.mockup.containers.userFemale;strokeColor=#666666;strokeColor2=#008cff;fontSize=20;" parent="1" vertex="1">
                    <mxGeometry x="720" y="40" width="70" height="70" as="geometry"/>
                </mxCell>
                <mxCell id="ZToANKEZAdNmLB96gID1-16" value="Contacte" style="text;html=1;strokeColor=none;fillColor=none;align=center;verticalAlign=middle;whiteSpace=wrap;rounded=0;fontSize=20;" parent="1" vertex="1">
                    <mxGeometry x="640" y="60" width="70" height="30" as="geometry"/>
                </mxCell>
                <mxCell id="ZToANKEZAdNmLB96gID1-17" value="Articles" style="text;html=1;strokeColor=none;fillColor=none;align=center;verticalAlign=middle;whiteSpace=wrap;rounded=0;fontSize=20;" parent="1" vertex="1">
                    <mxGeometry x="460" y="60" width="70" height="30" as="geometry"/>
                </mxCell>
                <mxCell id="ZToANKEZAdNmLB96gID1-22" value="" style="rounded=0;whiteSpace=wrap;html=1;fontSize=20;" parent="1" vertex="1">
                    <mxGeometry x="350" y="190" width="120" height="205" as="geometry"/>
                </mxCell>
                <mxCell id="ZToANKEZAdNmLB96gID1-24" value="" style="rounded=0;whiteSpace=wrap;html=1;fontSize=20;" parent="1" vertex="1">
                    <mxGeometry x="350" y="190" width="120" height="75" as="geometry"/>
                </mxCell>
                <mxCell id="ZToANKEZAdNmLB96gID1-25" value="" style="endArrow=none;html=1;rounded=0;fontSize=20;entryX=0;entryY=0;entryDx=0;entryDy=0;exitX=1;exitY=1;exitDx=0;exitDy=0;" parent="1" source="ZToANKEZAdNmLB96gID1-24" target="ZToANKEZAdNmLB96gID1-24" edge="1">
                    <mxGeometry width="50" height="50" relative="1" as="geometry">
                        <mxPoint x="950" y="480" as="sourcePoint"/>
                        <mxPoint x="1000" y="430" as="targetPoint"/>
                    </mxGeometry>
                </mxCell>
                <mxCell id="ZToANKEZAdNmLB96gID1-26" value="" style="endArrow=none;html=1;rounded=0;fontSize=20;entryX=0;entryY=1;entryDx=0;entryDy=0;exitX=1;exitY=0;exitDx=0;exitDy=0;" parent="1" source="ZToANKEZAdNmLB96gID1-24" target="ZToANKEZAdNmLB96gID1-24" edge="1">
                    <mxGeometry width="50" height="50" relative="1" as="geometry">
                        <mxPoint x="710" y="350" as="sourcePoint"/>
                        <mxPoint x="590" y="290" as="targetPoint"/>
                    </mxGeometry>
                </mxCell>
                <mxCell id="ZToANKEZAdNmLB96gID1-27" value="Titol" style="text;html=1;strokeColor=none;fillColor=none;align=center;verticalAlign=middle;whiteSpace=wrap;rounded=0;fontSize=20;" parent="1" vertex="1">
                    <mxGeometry x="350" y="285" width="60" height="30" as="geometry"/>
                </mxCell>
                <mxCell id="ZToANKEZAdNmLB96gID1-28" value="Cos" style="text;html=1;strokeColor=none;fillColor=none;align=center;verticalAlign=middle;whiteSpace=wrap;rounded=0;fontSize=18;" parent="1" vertex="1">
                    <mxGeometry x="350" y="315" width="60" height="30" as="geometry"/>
                </mxCell>
                <mxCell id="ZToANKEZAdNmLB96gID1-29" value="data" style="text;html=1;strokeColor=none;fillColor=none;align=center;verticalAlign=middle;whiteSpace=wrap;rounded=0;fontSize=18;" parent="1" vertex="1">
                    <mxGeometry x="410" y="265" width="60" height="30" as="geometry"/>
                </mxCell>
                <mxCell id="ZToANKEZAdNmLB96gID1-65" value="Web del Consell" style="text;html=1;strokeColor=none;fillColor=none;align=center;verticalAlign=middle;whiteSpace=wrap;rounded=0;fontSize=20;" parent="1" vertex="1">
                    <mxGeometry x="290" y="60" width="160" height="30" as="geometry"/>
                </mxCell>
                <mxCell id="ZToANKEZAdNmLB96gID1-66" value="&lt;font style=&quot;font-size: 30px&quot;&gt;Articles&lt;/font&gt;" style="text;html=1;strokeColor=none;fillColor=none;align=center;verticalAlign=middle;whiteSpace=wrap;rounded=0;fontSize=20;" parent="1" vertex="1">
                    <mxGeometry x="375" y="140" width="70" height="30" as="geometry"/>
                </mxCell>
                <mxCell id="Zy6Fjmy-WP6y4zXZMFv--37" value="Tramits" style="text;html=1;strokeColor=none;fillColor=none;align=center;verticalAlign=middle;whiteSpace=wrap;rounded=0;fontSize=20;" parent="1" vertex="1">
                    <mxGeometry x="540" y="60" width="90" height="30" as="geometry"/>
                </mxCell>
                <mxCell id="Zy6Fjmy-WP6y4zXZMFv--38" value="" style="rounded=1;whiteSpace=wrap;html=1;" parent="1" vertex="1">
                    <mxGeometry x="350" y="345" width="120" height="40" as="geometry"/>
                </mxCell>
                <mxCell id="Zy6Fjmy-WP6y4zXZMFv--40" value="&lt;font style=&quot;font-size: 15px&quot;&gt;Més Informació&lt;/font&gt;" style="text;html=1;strokeColor=none;fillColor=none;align=center;verticalAlign=middle;whiteSpace=wrap;rounded=0;fontSize=20;" parent="1" vertex="1">
                    <mxGeometry x="345" y="350" width="130" height="30" as="geometry"/>
                </mxCell>
                <mxCell id="Zy6Fjmy-WP6y4zXZMFv--42" value="" style="rounded=0;whiteSpace=wrap;html=1;fontSize=20;" parent="1" vertex="1">
                    <mxGeometry x="205" y="190" width="120" height="205" as="geometry"/>
                </mxCell>
                <mxCell id="Zy6Fjmy-WP6y4zXZMFv--43" value="" style="rounded=0;whiteSpace=wrap;html=1;fontSize=20;" parent="1" vertex="1">
                    <mxGeometry x="205" y="190" width="120" height="75" as="geometry"/>
                </mxCell>
                <mxCell id="Zy6Fjmy-WP6y4zXZMFv--44" value="" style="endArrow=none;html=1;rounded=0;fontSize=20;entryX=0;entryY=0;entryDx=0;entryDy=0;exitX=1;exitY=1;exitDx=0;exitDy=0;" parent="1" source="Zy6Fjmy-WP6y4zXZMFv--43" target="Zy6Fjmy-WP6y4zXZMFv--43" edge="1">
                    <mxGeometry width="50" height="50" relative="1" as="geometry">
                        <mxPoint x="805" y="480" as="sourcePoint"/>
                        <mxPoint x="855" y="430" as="targetPoint"/>
                    </mxGeometry>
                </mxCell>
                <mxCell id="Zy6Fjmy-WP6y4zXZMFv--45" value="" style="endArrow=none;html=1;rounded=0;fontSize=20;entryX=0;entryY=1;entryDx=0;entryDy=0;exitX=1;exitY=0;exitDx=0;exitDy=0;" parent="1" source="Zy6Fjmy-WP6y4zXZMFv--43" target="Zy6Fjmy-WP6y4zXZMFv--43" edge="1">
                    <mxGeometry width="50" height="50" relative="1" as="geometry">
                        <mxPoint x="565" y="350" as="sourcePoint"/>
                        <mxPoint x="445" y="290" as="targetPoint"/>
                    </mxGeometry>
                </mxCell>
                <mxCell id="Zy6Fjmy-WP6y4zXZMFv--46" value="Titol" style="text;html=1;strokeColor=none;fillColor=none;align=center;verticalAlign=middle;whiteSpace=wrap;rounded=0;fontSize=20;" parent="1" vertex="1">
                    <mxGeometry x="205" y="285" width="60" height="30" as="geometry"/>
                </mxCell>
                <mxCell id="Zy6Fjmy-WP6y4zXZMFv--47" value="Cos" style="text;html=1;strokeColor=none;fillColor=none;align=center;verticalAlign=middle;whiteSpace=wrap;rounded=0;fontSize=18;" parent="1" vertex="1">
                    <mxGeometry x="205" y="315" width="60" height="30" as="geometry"/>
                </mxCell>
                <mxCell id="Zy6Fjmy-WP6y4zXZMFv--48" value="data" style="text;html=1;strokeColor=none;fillColor=none;align=center;verticalAlign=middle;whiteSpace=wrap;rounded=0;fontSize=18;" parent="1" vertex="1">
                    <mxGeometry x="265" y="265" width="60" height="30" as="geometry"/>
                </mxCell>
                <mxCell id="Zy6Fjmy-WP6y4zXZMFv--49" value="" style="rounded=1;whiteSpace=wrap;html=1;" parent="1" vertex="1">
                    <mxGeometry x="205" y="345" width="120" height="40" as="geometry"/>
                </mxCell>
                <mxCell id="Zy6Fjmy-WP6y4zXZMFv--50" value="&lt;font style=&quot;font-size: 15px&quot;&gt;Més Informació&lt;/font&gt;" style="text;html=1;strokeColor=none;fillColor=none;align=center;verticalAlign=middle;whiteSpace=wrap;rounded=0;fontSize=20;" parent="1" vertex="1">
                    <mxGeometry x="200" y="350" width="130" height="30" as="geometry"/>
                </mxCell>
                <mxCell id="Zy6Fjmy-WP6y4zXZMFv--51" value="" style="rounded=0;whiteSpace=wrap;html=1;fontSize=20;" parent="1" vertex="1">
                    <mxGeometry x="495" y="190" width="120" height="205" as="geometry"/>
                </mxCell>
                <mxCell id="Zy6Fjmy-WP6y4zXZMFv--52" value="" style="rounded=0;whiteSpace=wrap;html=1;fontSize=20;" parent="1" vertex="1">
                    <mxGeometry x="495" y="190" width="120" height="75" as="geometry"/>
                </mxCell>
                <mxCell id="Zy6Fjmy-WP6y4zXZMFv--53" value="" style="endArrow=none;html=1;rounded=0;fontSize=20;entryX=0;entryY=0;entryDx=0;entryDy=0;exitX=1;exitY=1;exitDx=0;exitDy=0;" parent="1" source="Zy6Fjmy-WP6y4zXZMFv--52" target="Zy6Fjmy-WP6y4zXZMFv--52" edge="1">
                    <mxGeometry width="50" height="50" relative="1" as="geometry">
                        <mxPoint x="1095" y="480" as="sourcePoint"/>
                        <mxPoint x="1145" y="430" as="targetPoint"/>
                    </mxGeometry>
                </mxCell>
                <mxCell id="Zy6Fjmy-WP6y4zXZMFv--54" value="" style="endArrow=none;html=1;rounded=0;fontSize=20;entryX=0;entryY=1;entryDx=0;entryDy=0;exitX=1;exitY=0;exitDx=0;exitDy=0;" parent="1" source="Zy6Fjmy-WP6y4zXZMFv--52" target="Zy6Fjmy-WP6y4zXZMFv--52" edge="1">
                    <mxGeometry width="50" height="50" relative="1" as="geometry">
                        <mxPoint x="855" y="350" as="sourcePoint"/>
                        <mxPoint x="735" y="290" as="targetPoint"/>
                    </mxGeometry>
                </mxCell>
                <mxCell id="Zy6Fjmy-WP6y4zXZMFv--55" value="Titol" style="text;html=1;strokeColor=none;fillColor=none;align=center;verticalAlign=middle;whiteSpace=wrap;rounded=0;fontSize=20;" parent="1" vertex="1">
                    <mxGeometry x="495" y="285" width="60" height="30" as="geometry"/>
                </mxCell>
                <mxCell id="Zy6Fjmy-WP6y4zXZMFv--56" value="Cos" style="text;html=1;strokeColor=none;fillColor=none;align=center;verticalAlign=middle;whiteSpace=wrap;rounded=0;fontSize=18;" parent="1" vertex="1">
                    <mxGeometry x="495" y="315" width="60" height="30" as="geometry"/>
                </mxCell>
                <mxCell id="Zy6Fjmy-WP6y4zXZMFv--57" value="data" style="text;html=1;strokeColor=none;fillColor=none;align=center;verticalAlign=middle;whiteSpace=wrap;rounded=0;fontSize=18;" parent="1" vertex="1">
                    <mxGeometry x="555" y="265" width="60" height="30" as="geometry"/>
                </mxCell>
                <mxCell id="Zy6Fjmy-WP6y4zXZMFv--58" value="" style="rounded=1;whiteSpace=wrap;html=1;" parent="1" vertex="1">
                    <mxGeometry x="495" y="345" width="120" height="40" as="geometry"/>
                </mxCell>
                <mxCell id="Zy6Fjmy-WP6y4zXZMFv--59" value="&lt;font style=&quot;font-size: 15px&quot;&gt;Més Informació&lt;/font&gt;" style="text;html=1;strokeColor=none;fillColor=none;align=center;verticalAlign=middle;whiteSpace=wrap;rounded=0;fontSize=20;" parent="1" vertex="1">
                    <mxGeometry x="490" y="350" width="130" height="30" as="geometry"/>
                </mxCell>
                <mxCell id="Zy6Fjmy-WP6y4zXZMFv--60" value="" style="rounded=0;whiteSpace=wrap;html=1;fontSize=20;" parent="1" vertex="1">
                    <mxGeometry x="635" y="190" width="120" height="205" as="geometry"/>
                </mxCell>
                <mxCell id="Zy6Fjmy-WP6y4zXZMFv--61" value="" style="rounded=0;whiteSpace=wrap;html=1;fontSize=20;" parent="1" vertex="1">
                    <mxGeometry x="635" y="190" width="120" height="75" as="geometry"/>
                </mxCell>
                <mxCell id="Zy6Fjmy-WP6y4zXZMFv--62" value="" style="endArrow=none;html=1;rounded=0;fontSize=20;entryX=0;entryY=0;entryDx=0;entryDy=0;exitX=1;exitY=1;exitDx=0;exitDy=0;" parent="1" source="Zy6Fjmy-WP6y4zXZMFv--61" target="Zy6Fjmy-WP6y4zXZMFv--61" edge="1">
                    <mxGeometry width="50" height="50" relative="1" as="geometry">
                        <mxPoint x="1235" y="480" as="sourcePoint"/>
                        <mxPoint x="1285" y="430" as="targetPoint"/>
                    </mxGeometry>
                </mxCell>
                <mxCell id="Zy6Fjmy-WP6y4zXZMFv--63" value="" style="endArrow=none;html=1;rounded=0;fontSize=20;entryX=0;entryY=1;entryDx=0;entryDy=0;exitX=1;exitY=0;exitDx=0;exitDy=0;" parent="1" source="Zy6Fjmy-WP6y4zXZMFv--61" target="Zy6Fjmy-WP6y4zXZMFv--61" edge="1">
                    <mxGeometry width="50" height="50" relative="1" as="geometry">
                        <mxPoint x="995" y="350" as="sourcePoint"/>
                        <mxPoint x="875" y="290" as="targetPoint"/>
                    </mxGeometry>
                </mxCell>
                <mxCell id="Zy6Fjmy-WP6y4zXZMFv--64" value="Titol" style="text;html=1;strokeColor=none;fillColor=none;align=center;verticalAlign=middle;whiteSpace=wrap;rounded=0;fontSize=20;" parent="1" vertex="1">
                    <mxGeometry x="635" y="285" width="60" height="30" as="geometry"/>
                </mxCell>
                <mxCell id="Zy6Fjmy-WP6y4zXZMFv--65" value="Cos" style="text;html=1;strokeColor=none;fillColor=none;align=center;verticalAlign=middle;whiteSpace=wrap;rounded=0;fontSize=18;" parent="1" vertex="1">
                    <mxGeometry x="635" y="315" width="60" height="30" as="geometry"/>
                </mxCell>
                <mxCell id="Zy6Fjmy-WP6y4zXZMFv--66" value="data" style="text;html=1;strokeColor=none;fillColor=none;align=center;verticalAlign=middle;whiteSpace=wrap;rounded=0;fontSize=18;" parent="1" vertex="1">
                    <mxGeometry x="695" y="265" width="60" height="30" as="geometry"/>
                </mxCell>
                <mxCell id="Zy6Fjmy-WP6y4zXZMFv--67" value="" style="rounded=1;whiteSpace=wrap;html=1;" parent="1" vertex="1">
                    <mxGeometry x="635" y="345" width="120" height="40" as="geometry"/>
                </mxCell>
                <mxCell id="Zy6Fjmy-WP6y4zXZMFv--68" value="&lt;font style=&quot;font-size: 15px&quot;&gt;Més Informació&lt;/font&gt;" style="text;html=1;strokeColor=none;fillColor=none;align=center;verticalAlign=middle;whiteSpace=wrap;rounded=0;fontSize=20;" parent="1" vertex="1">
                    <mxGeometry x="630" y="350" width="130" height="30" as="geometry"/>
                </mxCell>
                <mxCell id="Zy6Fjmy-WP6y4zXZMFv--69" value="" style="rounded=0;whiteSpace=wrap;html=1;fontSize=20;" parent="1" vertex="1">
                    <mxGeometry x="65" y="190" width="120" height="205" as="geometry"/>
                </mxCell>
                <mxCell id="Zy6Fjmy-WP6y4zXZMFv--70" value="" style="rounded=0;whiteSpace=wrap;html=1;fontSize=20;" parent="1" vertex="1">
                    <mxGeometry x="65" y="190" width="120" height="75" as="geometry"/>
                </mxCell>
                <mxCell id="Zy6Fjmy-WP6y4zXZMFv--71" value="" style="endArrow=none;html=1;rounded=0;fontSize=20;entryX=0;entryY=0;entryDx=0;entryDy=0;exitX=1;exitY=1;exitDx=0;exitDy=0;" parent="1" source="Zy6Fjmy-WP6y4zXZMFv--70" target="Zy6Fjmy-WP6y4zXZMFv--70" edge="1">
                    <mxGeometry width="50" height="50" relative="1" as="geometry">
                        <mxPoint x="665" y="480" as="sourcePoint"/>
                        <mxPoint x="715" y="430" as="targetPoint"/>
                    </mxGeometry>
                </mxCell>
                <mxCell id="Zy6Fjmy-WP6y4zXZMFv--72" value="" style="endArrow=none;html=1;rounded=0;fontSize=20;entryX=0;entryY=1;entryDx=0;entryDy=0;exitX=1;exitY=0;exitDx=0;exitDy=0;" parent="1" source="Zy6Fjmy-WP6y4zXZMFv--70" target="Zy6Fjmy-WP6y4zXZMFv--70" edge="1">
                    <mxGeometry width="50" height="50" relative="1" as="geometry">
                        <mxPoint x="425" y="350" as="sourcePoint"/>
                        <mxPoint x="305" y="290" as="targetPoint"/>
                    </mxGeometry>
                </mxCell>
                <mxCell id="Zy6Fjmy-WP6y4zXZMFv--73" value="Titol" style="text;html=1;strokeColor=none;fillColor=none;align=center;verticalAlign=middle;whiteSpace=wrap;rounded=0;fontSize=20;" parent="1" vertex="1">
                    <mxGeometry x="65" y="285" width="60" height="30" as="geometry"/>
                </mxCell>
                <mxCell id="Zy6Fjmy-WP6y4zXZMFv--74" value="Cos" style="text;html=1;strokeColor=none;fillColor=none;align=center;verticalAlign=middle;whiteSpace=wrap;rounded=0;fontSize=18;" parent="1" vertex="1">
                    <mxGeometry x="65" y="315" width="60" height="30" as="geometry"/>
                </mxCell>
                <mxCell id="Zy6Fjmy-WP6y4zXZMFv--75" value="data" style="text;html=1;strokeColor=none;fillColor=none;align=center;verticalAlign=middle;whiteSpace=wrap;rounded=0;fontSize=18;" parent="1" vertex="1">
                    <mxGeometry x="125" y="265" width="60" height="30" as="geometry"/>
                </mxCell>
                <mxCell id="Zy6Fjmy-WP6y4zXZMFv--76" value="" style="rounded=1;whiteSpace=wrap;html=1;" parent="1" vertex="1">
                    <mxGeometry x="65" y="345" width="120" height="40" as="geometry"/>
                </mxCell>
                <mxCell id="Zy6Fjmy-WP6y4zXZMFv--77" value="&lt;font style=&quot;font-size: 15px&quot;&gt;Més Informació&lt;/font&gt;" style="text;html=1;strokeColor=none;fillColor=none;align=center;verticalAlign=middle;whiteSpace=wrap;rounded=0;fontSize=20;" parent="1" vertex="1">
                    <mxGeometry x="60" y="350" width="130" height="30" as="geometry"/>
                </mxCell>
                <mxCell id="Zy6Fjmy-WP6y4zXZMFv--78" value="" style="rounded=0;whiteSpace=wrap;html=1;fontSize=15;" parent="1" vertex="1">
                    <mxGeometry x="15" y="720" width="790" height="240" as="geometry"/>
                </mxCell>
                <mxCell id="Zy6Fjmy-WP6y4zXZMFv--79" value="&lt;div align=&quot;left&quot;&gt;&lt;font style=&quot;font-size: 15px&quot;&gt;Consell Comarcal de l'Alt Empordà&lt;/font&gt;&lt;/div&gt;&lt;div align=&quot;left&quot;&gt;&lt;font style=&quot;font-size: 15px&quot;&gt;C/ Nou 48, 17600 Figueres&lt;br&gt;&lt;/font&gt;&lt;/div&gt;&lt;div align=&quot;left&quot;&gt;&lt;font style=&quot;font-size: 15px&quot;&gt;Tel. 972 503 088&lt;/font&gt;&lt;/div&gt;&lt;div align=&quot;left&quot;&gt;&lt;font style=&quot;font-size: 15px&quot;&gt;Fax. 972 505 681&lt;br&gt;&lt;/font&gt;&lt;/div&gt;&lt;div align=&quot;left&quot;&gt;&lt;font style=&quot;font-size: 15px&quot;&gt;Correu Electrònic. consell@altemporda.cat&lt;br&gt;&lt;/font&gt;&lt;/div&gt;" style="text;html=1;strokeColor=none;fillColor=none;align=left;verticalAlign=middle;whiteSpace=wrap;rounded=0;fontSize=20;" parent="1" vertex="1">
                    <mxGeometry x="45" y="810" width="345" height="115" as="geometry"/>
                </mxCell>
                <mxCell id="Zy6Fjmy-WP6y4zXZMFv--84" value="" style="shape=image;verticalLabelPosition=bottom;verticalAlign=top;imageAspect=0;aspect=fixed;image=data:image/png,/9j/4AAQSkZJRgABAQAAAQABAAD/2wCEAAMCAggICAgICAgICAgICAgICAgICAgICAgICAgICAgICAgICAgICAgICAgICAoICAgICgkJCAgLDQoIDQgICggBAwQEBgUGCgYGCA0NCA0NDQ0NDQ0NDQ0NDQ0NDQ0NDQ0NDQ0NDQ0NCAgIDQ0ICAgIDQgICAgICA0ICAgICA0ICP/AABEIAJYCAAMBEQACEQEDEQH/xAAeAAEAAgIDAQEBAAAAAAAAAAAACAkGBwEDBQQCCv/EAFwQAAICAQIEBAIDBREJDgcBAAECAwQFABEGEhMhBwgJMRQiI0FRFRgyYXUWMzU2QlJVcXKRkpOWtLXR1CQ0Q1SBlKGxsiU3RFZzdHaChbO20tPVGSYnU2KElRf/xAAcAQEBAQACAwEAAAAAAAAAAAAAAQIFBgMEBwj/xABEEQACAQMBBAMMCAUDBAMAAAAAAQIDBBEhBRIxQQZRYRMUFiIyQlJxkdHh8CNTVIGSobHBlKLC0vFDYnIVo7PDB2Nz/9oADAMBAAIRAxEAPwC1PQDQH4eUDuTsB9Z0C14GMQeKeNeeSrHeqy2YonnkrQzxzTpFHy87tFGzOoHMo7qCSw23314VWg24qSbWuFx9hyEtn3MaarSozVNvdUnFqLb5JvTk+HUzQSeoXh5rlWpTr3bItWa1dbJjSvAvxMyQh9pZBYYLzhtugAR25vfbjP8AqtJyUYJvLSzwWvr/AGO8voFf06FSvXnThuRlPdy5SajFyx4qcU3jGstHx7dXeY/ztZqjlL2Npx066VJREJnieedw8MUquOeRYV+WQdjFINelebRrU6kqVNJJaZfasnY+jvQywu7OleXEpylNOW6moxTUpRazhyeWs6buOvmsM803idkpMbwpOb9tGvYd57fQnkrJYn2plpJI67RRMd5G2HJsu5AAGvXva1SVOi996xy8PGeHUcv0X2ZaQu9oU+4Qap1t2G/GM3GOai031LjhZfF41Pv8HfGLK1eEM7ejv2Xs1cnj4aslmRrnSSWWgssaLa6yhHSZwVA2HMSOUgEW3r1YWtSam21JJZ16vy1PDtfZFlcbdtLWVCKpzozlNQShlpVcN7ijqnFapetNaGxvKh5xMrl8kmOvQ0mQ157DWYUkgkVYFT8JDLLG3M7qCVEYAJ7dte5Y7Qq1p7k0sYbyuz4nX+lHRGz2dad9W05534x3JNSWZbzypJReiXBp68+rK/Dv1E8NdeKKavepSTNEkZeFbETvKQqKrVnkkBLMo3eFB3H49vPS2rSm0pJpvhz/AE/c4u/6BbQtYSqQnTnGKcpYk4tKKy3iSjnCy/Fb4P75CJ4oY02pKPx9T42LbqVDYhFhOZUcEwlxJsVkQ7hSPmH265Tu1Pe3N5b3VnU6L/0+6VFXHcZ9xfCe6918fOxjOj0znR9RkobXmPQP1oBoBoBoBoBoBoBoBoBoBoBoBoBoBoBoBoBoBoBoBoBoBoBoBoBoBoBoBoBoBoBoBoBoBoBoBoBoBoBoBoBoBoBoBoBoBoBoBoBoBoBoBoBoDWnmT4F+6WBytMIHeSnK8KkAgzwDr1/qPfrRJsdu2vUu6fdaM4Lmvn8zntgXisto0LiT8WM473/FvEv5WysjyseJ1fD5mnenJSn07ENgpG8hEU8DFSIo1Z2+nWHcKpIG59gddNsq0aNWM5eTrn1Y9+D9I9KNm1tpWFS2p61t6MoLKXjxlji2kvo3LDbS5cWYFFcjr2xLW5nhrXBNW3BVnhr2epX3D7MrNGibh9mBPzbEHXrJqMsx4J5Xqzlfkc24TrW/c62FUnT3Z9SnKGJcOSm3jdyurKM98zPGtPJZy9foSPLWtfDOGeKSFg8dWGvIvTlRHHeHm3I2PN2PbXtXlWFWs503o8P2LBwfR2yuLHZtK2uopVI76wmno5OUXlNrXOMccH1eMPiRUu4vhirA7tYxePsVritFIixyOafTCO6hJQRC/wA0TMBsNyNxrVxWjOnSSesVh6Ps9xjZGza9re39erHFOrVjKm8rWKdTLxxXGPlYbyznhrxKqRcLZXEs7i9cytSzFGIpCjV4fgizGYL0kIaCT5GcMeUbA8y7ynWiradPPjOSa9Whm52dcT21b3yiu4wo1IyeVpJqpurGc6uS1Sxrx0O/yweJdPE3btu3I6FsVbq1QkMkvPZneFkB6at0x9Dtzvyr83cjWrKtCjOTm/NaWnNvJ4uk+zbjaNvToW0E0qsJTzJLEYprOvHOfNy1jhqYJ4N5GtVyWLmusyVatutPYdEeVgtZhMu0cYZ2DSxohCqflYnbYHXrW7jGpCU/JTTf3fE57bNOtXtLinarNWcJRim0s7/ivV6L6NtrLWqWp3+MvEf3Xy+QtQr1fjrz/CKy7M6Mwr0hySAFHeJYd1bYqzEHbbsrz7vVlJc5afovyPHseg9m2FGjOWFTp+O85S0c6n4JuWGsppLGeLuI4H4Vjo0qlKIbR1K0FZPr+WCJY17nuSQu5J7k99d+px3IKPUkvYfky7uJXNepXn5U5Sk/XJtv7teHI9zXkPUGgGgGgGgGgGgGgGgGgGgGgGgGgGgGgGgGgGgGgGgGgGgGgGgGgGgGgGgGgGgGgGgGgGgGgGgGgGgGgGgGgGgGgGgGgGgGgGgGgGgGgGgGgPy47d9BnGpS34ocENj8nkKIjYLVuWIogFYjodRmrbEA+9dom99+/fvvr59WpunUlDGib9n+D9fbNvYXdnRuHJZnTi3lpeNjEtH/APYn2PloYz8M/wCsf+A39WvCcjvw9KPtXvHwz/rH/gN/VoN+HpR9q94+Gf8AWP8AwG/q0wN+HpR9q94+Gf8AWP8AwG/q0wN+HpR9q94+Gf8AWP8AwG/q01G/D0o+1e8fDP8ArH/gN/VoN+HpR9q95tfypcDtd4ixUTRsY4pzclJVgAtNGnQkkDsbCwLt9fNr37Gk6leOmi19nx1OrdKL6NrsqvKMlvSj3NYafl+K/wDt7zzyx1lui67wflk50A0A0A0A0A0A0A0A0A0A0A0A0A0A0A0A0A0A0A0A0A0A0A0A0A0A0A0A0A0A0A0A0A0A0A0A0A0A0A0A0A0A0A0A0A0A0A0A0A0A0A0A0A0Bw2gIi+a3xL4tx+RjTCw2bFGWqj/3Pinv9OwJJElR3ihkKbqInUOe/M23Ya4O9rXNKp9FFuLXJZ15n1Dovs7Yl5aye0KijWU2vGqqmnBpYwnxw8p44adZpf74rxC/xHJfybsf2XXH9+XvoS/B8DuHg/0W+0Q/iYe85++K8Qv8RyX8m7H9l078vfQl+D4Dwf6LfaIfxMPecffFeIX+I5L+Tdj+y6d+XvoS/B8B4P8ARb7RD+Jh7zn74rxC/wARyX8m7H9l078vfQl+D4Dwf6LfaIfxMPecffFeIX+I5L+Tdj+y6d+XvoS/B8B4P9FvtEP4mHvOfvivEL/Ecl/Jux/ZdO/L30Jfg+A8H+i32iH8TD3khfKDx7xLkJLzZ2KeCGFIFrJYxxoNJLI0plZRJFHI4iREG4+XeX6yO3K2FWvUcnWWEuGVjU6D0rsdkWcaUdmVFKb3nPFRVEkt3d4aJtt6cdFy4ycGuXPnpzoBoBoBoBoBoBoBoBoBoBoBoBoBoBoBoBoBoBoBoBoBoBoBoBoBoBoBoBoBoBoBoBoBoBoBoBoBoBoBoBoBoBoBoBoBoBoBoBoBoBoBoBoBoBoD88g0Bzy6AcugOi7cjiRpJHSONFLu7sEREUbszMxCqqgEliQABvqN41bNRi5NRim2+CWrfxO5dj3Gx1cmew55dAOXQDl0BzoBoBoBoBoBoBoBoBoBoBoBoBoBoBoBoBoBoBoBoBoBoBoBoBoBoBoBoBoBoBoBoBoBoBoBoBoBoBoBoBoBoBoBoBoBoBoBoBoBoBoBoBoBoBoBoBoBoD5799IkeSR1jjjVnd3YKiIoLMzMxAVVAJLEgAAnUbSWXwNwhKclGKzJ6JLVtvku1vgisvzb+bd8270KDNHiI3+Zu6vkWU9ncditRWHNHEdjIdpHA2RF6df3zrvcg/E/X4fr6j9F9FeisdmJXV1FO6a0XFU0+X/6taOS8haLxstZZ5OfOL8B0sTlpf7h7R0rkjdqfsEr2GP/AAQe0cpO1cfKxEQUw+zs+/3MUqr05P8AZnGdLeiTu3K9sY/TcZwXn/7or6z0orWo9UnNvesOVt9dpPgh+tANANANANANANANANANANANANANANANANANANANANANANANANANANANANANANANANANANANANANANANANANANANANANANANANANANANANANANANANANANANAam8zvg3NncTLRgtPVl5llQbkV7DR7la9sKC5ruSCSndHWNysoQxv6V3buvTcE8P5/I7P0c2vT2VfQuatJTjqn6Uc+dDlvxXBPispOLanGujwh8rmUymSmx8kMlEU5OTIzTR7isfcRoNws80y7NF03MbRMs3OY2QydSt7KrVnuY3UuL6vfns01z6/v21uk9nYWsbmE1Uc1mnGL8rtfOMIvxZZSkpLdUd5Pd+bP8AldzEOXXCiv1rEu7QTqGWpLWBAa20hDdKGPcCZW5njcrGBK0kHWk7KrGp3Hdy3wfLHX2Y58125Wd2/Sawq2Lv3U3YLyovWan6GNMyl/ptYjOKy3Ddk42heC3hycRjKmOazLbNaPkM0vue5PJGvcxwRb9OGIs5jhVFLNy7nudvSdKmoOWWufzy6j837X2gtoXlS6VNQ35Z3V+rfOcuM5ab0m3hZM317Bw40A0A0A0A0A0A0A0B0W7qRqWkdUUe7OwVR+2WIA0B147LxTDeKWOUD3Mbq4H+VSRoD69AfFk83DCAZpoogfYyyJGD+0XI30B3VLqSKHjdXU+zIwZT+0VJB/f0B3E6A6o7iE7BlJ+wMCf9B0B3aA6ktKTsGUn7AQT+9oDt0B5s3EtdX6TWIVk9um0sYf8AgFub/RoD0tAdMlxAdiyg/YWAP+k6A/P3Qj/Xp/CX+vQHdHICNwQR9oO4/f0B+IrSt2VlJ99gQe3+TQHboDrlsKv4TBd/bcgb/v6A/atv3HcH20BzoBoBoDz7/ENeJgss8MbH2WSVEJ/aDMCdAfckgIBBBB7gjuCPxHQH60B5cnFFYP0jYgEm+3TM0Yff7OTm5t/8mgPU0B+JZgvdiAPbuQP9egPzFZVvwWU/tEH/AFaA7dAdDXkHYuoI9wWH9egO5W37jQH5klCjckAfaTsP9OgPzFZVvwWU/tEH/VoDt0B0NeQdi6gj3HMP69AdkUwb8Eg/tEH/AFaA/egPyzgAknYDuSfYD7ToD4aPENeVikc8MjD3VJUdht77hWJH72gPQ0B1y2FX8JgN/bcgf69AIp1b8Eg/tEH/AFaA/egOuK0rdlZT+0Qf9WgO3QDQDQDQHRevJEjySOsccas7u7BURFHMzMzEBVUAksSAAN9RtJZfA1CMpyUYpuTeElq231drfBIxHwt8Y8dmYXnx1hZ445Whk7FHRlJClo3AdUlUCSNiAHQgj6wPBRrwrLNN5Xz8+o5PaOy7rZ1RUrqm4yaTWeDXY+tPxZLzZJp4ZmjNr2DiiIHm/wDOEMf1cXipAcgfltWl5WWiCPwF91e4y/UdxAuzMC3KuuB2htDuf0dJ+NzfV8f059T+qdE+iTvcXl7F97ryIvK7o/2op+U1rN6RfGUco8pXmxizUa07hSLLQxnmAAVLsa7c09cfU42BmgHdD8y7ofk89hfKut2elRfn89XL83xnSnotPZU+70E5Wsno9XuP0Zf0T03l1PKUlwdcufPjBfEXxwxeJkqxX7cdd7knThDb9vqMspG/SgVuVGnk5Y1ZlBYdyPXq3FOk0pvDfA5jZ+yLzaEZytaTkoLMsfouubWqgsyaTaWEZ0rb69g4c50A0A0A0A0A0BrzzA+McOAw97KzL1BViHSh35TPZldYa0AbY8vWnkjQvsQilnI2U6gKxvCHy65vxGsWcrl8kY6cU5iDyRPPEJuRWeti6TSpBWghjaMPMCxZtg/xMvXkSYKbEHpUZTGZKlPhM0kMZnRbFyONqF+lCvzu6CGR47okKcghbpJztHzpMnUKXAJXedbzEycMYMS12EmRtSJRovMqsBMYnkltyoiqjdGGKSXkCqjzGJNlVzsIQh8BPT6u8X1Rn85lJk+N52rNLCLl2xGsjKLEkthxHBXkYO0FeKIqYSjoYldUEKYbx9wNnPDPM1no2xLWshp4TGpgqZKKF0WzTu1OeRUsRLJEOsvMVWaKWJwetDGKWzcP8cwZTDxZGsSa97Hi1FuNmEc9fqKrD6mUNysPqYEa0ZKC/BjiKfEz0M1SjUT4+em3UAVQ8k8NhxWlYAtyXa9a7E7bHZBIezcm+MmsH9AXhp4g18tj6mSqNz17kEc8RPZlDj5o3H6mSJ+aORD3V0ZT3GtmSsr0/a6jxDzjBQGZOJeYgAE7ZyqBufc7DsN/YaiKza/ql+aG7jBVw+PsSVWsVZb1+eu5js/Ch2hgrwyKVeIWHjsM8kbI+0CpzKsj7m+QSMAxPo6yTUUmmy1aPIyxrK8X3PE9VJHAdomnNhJ5SCSpsBF5j83R/UmAlR5DfATMYDGTQZe88zyTkVqInNqrj4IeaJBWmkUSBbIAl6K9OGJOkqwxSfEGSohBP1A+DI7/AB8lNgim6cFSErRrJ0vjJErdTlJXn6fV5+TmXm5duZd9xnmaxzNq/wDwXo/2cg//AIq/+46uGQm55ZPA38zeDq4f4kW/hWtt1xB8OGFm5YtBRD1ZuQRifp/nh5uXfZd+UaIVxelFSROLbvIirvg8jvyqF32ymI232Hfbc6zErLc9aIVl+stVV5eGg6qwEOdIDAMAebDd++/fv76jKifHgGu2CwoHYDE40Af/AKcOqQzzQDQED/Ul83NzFGDBYmSSG7bg+IuWYAxs160kjQ14KnKCRZuSRzjqRkywpEAgV7MMsUZUax4O9ISa5W+Ky2VWDI2F6rxCmLpikccxFq1NYWS1LzHeVl6fzcwDybCRoDd3kY8n+Z4auX/jclzY4Do0qVWRzUtFtpWvPXlDClIpJjEUJDtJ1i8syCEvQal9QDzJ5S7mY+EcHJLES9WvbevJJBPavXAkkVPrxgSQ1IIZYZrEkbbP1XVyErzJIYR8bejMvwe/3Xg+6HJvy/c1Pgef36e/W+IC7fJ19z+v6H+D1AeV5A/MNlMTnhwplpJngllsUYoZ3Mpx2QqLK4jhlfZzSspE8aIOZOY1HiSJJZixFZt31fq6tgcSGUMDnYtwwBB/3Myh7g9vcA60ZIb+R7jRuHeKMU8qLXrZaGCrN8uyyVcskcuOsDl2H9+CovUYMI0aypCEOyZyaLkfEnjyHF4+7krB2go1Z7Uu3uVgjaQqo+tm5eVQPdiB9etGT+fbinHzXBYy1uKN5Lt20Z5+VSHvyKt2yic277RizGw33CpJGNz9WDRfx4ILthcQB7DF4/8AmkOtIyQW9YPxGJhxOFjXqtK82TniXdmfoqatKFowDzixLPYZQf8ACVl2ViN1ZKao8rmN/Md4gjEybJDZ/wByZZDyxLIb1WtepS7KoR3a2sNJPb5p5ADueRogW6nWiFI/FXgjFnvEDI4kvFWa/m8wvxLV1n6fQju3CTFzxdTn+H6f56m3Pzbnl2bCNGZePfkVyfBVdc1j8tzxRzQwzT0YpcVbrGaRY4GbpWphYgecpEy8y8rPHvFIhkaO4IWB+Sbx4mzfDcF/IMvxVdrFW7PsqLK1Rv75ZUCohmgMc0ioqors4VVAAFyQgRneK814n52WjVsGrhYleZIn6ppwUUkCwWrtdCguX7T8kkUEzKI9nEbRivPK4pm3iD6P09aD4jDZOGxch2kSCxVFFpHUqVNe7BK5rSoQWQvG278o6sOxcMDJYV4HcCW8ZiqVK9fmyduCELPcnPM8j+5UMw6jxx79ON52kmZFUyO7FjoQrn9Qaf8ANFxriOHYwHSsatJiArmGfKSx2L0vK24JrY6OtY229lcfaBGU9D0qOLXx2ZzPDs4EZdZJViUARpexVlqd0L2UlpllQjt3SpvsPrqDLOsmPo5P3D/7J1SFUHo3VEXK3yqqpbDQliAASTZh3JIHcn8epzKW0apBoBoDovXkiR5JHWOONS7u7BURFG7MzMQFVQCSxIAA31G0ll8DUYSm1GKbk9Elq2+ztKzvNz5uHzTvQoMyYmNtnfur5F1PZ2HYrUBAMcZ2MpAdwByIOnX1/wB38SHkfr8P19XH9FdFeii2aldXSTumtFypZ/8Abji1pDVLMtV5Pkj4Yy82YSfGOYIICq5GeRS1Zq5PN8LIgK9WaQfNEqsrRH6TmQdpM7OhUdXNLRed1er1/p9+H5+mtzY07F0rtb1SWtKKfjKXDfzruwXCWViekUnJb0Jr+aHjLPR1vhMDj7E9mdSJLsZhVakZ7HpCaVOey3srbFIvwjzMAuuxXtSso7tGDbfPq+Pz2P470btNmVK3ddp3EY0o8IYk3N9u6niCflaqUuGieVX83lR4mJJOGuEklmLSVSzMTuzMxskszEkliSSSSSd9dXVjccXTefWvefePCnY+MK8guSxGaSxwSShhJLRJaJHfjvLBxVBJHNDib0U0TrJFLHLVWSORTurows9iD++NwdwSCVlcReY03n1r3mKnSXYlWEqdS6pyhJYlFxqNNPimt379MNNJpprJYz4A8aZe1S5Mxj5KN+EBXkYRGC19SzxiGVxGx2BkhJUBjuhKnZO22tSrOGKsMS/J9vw/yfnzbtpZW9w3YXCq0HqtJKUdfJe8lnC0jJZzzSehWz5meGctXy9j7ssZrMxLxWAD8PYrBiI/hQdxHDECENfctCxPMXL9SXqF5CpGq+7at8Hyx2erq5ffl/ofo1c2VawgrBYpx0lHzozfHf65SxlVPJnFYju7u5HePk384nwXSxGWl/uP5Y6V2Q/3p9SVrDk/3r+pilP5x2Rtowpi5Kw2huYpVXpyf7M6d0u6Jd8719ZR+l41ILz+uUf9/OUeM3lrxnh2GK243H167UfBvWc6AaAaAaAaAg56uGUdMBjYlJCT5uFZR22dY6OQmRT+1LHG4/Gg+zWWVGzfTixixcG4nlIbqNkZWI/XyZS6xU9z3j3ER/cew9taISW0BWP6xeSYWeH4wTyrVzEvLueUv1MaoO3sWUAgH3AY/ad8sqJ+eAeJSDBYWCPbpxYrHxpt+tSpCoP+UDffVIRN9XmkpwmIk2HOmcRFP1hZMbkiwH4iY0J/c6j0NI2H5Aci8nAlAuSxSPLwqT9UcOSyEUSj/wDGONVjUfUqjVMkE/T58GE4gxfFWLYqsk2LwclWRvaK7XlyE1WQ7bHlEyqHAI5o2kX2Y6mCs3X6Wfjk9azc4Wv80LmSxYoxSkBobcJKZPH7b7BwyG0sab/PHkHJ9tUGKeQAf/UPN/uOJv6dq6IMkj6hfk7s8RQ1r+NCSZGhFLCakjKi3qsrK5iWRyESxE6loeqyxOJZkZo+ZXU0EyMHg16hOd4adMPnqM1uOqqxiOyrVMvBAm6LyvMBHeiXYJHJJydTYn4uXtqAsl8FPHXGcQUxdxk/WjDGOWNlMc9eYAEw2IW+aNwCGB7pIhV0aRGVjohV95/c69Xj1bcUfWlqHBW4ofm+mkqyJPHD8is/0zxiLdFdhzdlc7KfHzN+abSk9U3iIAn8x0p2BOw+6u5/EN8UBufxkD8Y1syWOcPZNp60EzLyNLBFKyd/laSNXK9+/wApO3fv21SFUvpVfptufkPJf0piNZiakW260ZK0PWO/PuG/+Qzv+3hdRlRPTwF/QLC/knHfzOHVIZ3oBoCo3xmX43xVSKdj0487go0B27R1quPtJF3H4Ek/OSD3+mbYjcbZ5l5FuWtEGgKgfA66bPirzy7M35ouJF/zSnmIYP8AKkcEQ/6o9tZ5muRb7rRkqF809H4XxMhkiJDS5nhiydthyuz42FlGwHZli3YHffnbfsdtZaNLgSR9Xf8AQLE/l2P+i8rqmSL3mg8JD+ZHgjOw8yMMPSxVqSMEOnNAbOPmLj876MgtRq5/wtiEb78oMKbI85vm6TJ8EYJA6ifM7TZJAG+QYSRfjVX22/3WSuUJB6kKSFQ24YAa783Xg8cHwrwhTkXltSDKXLoO3MLdxKc8sZI9/hw61lPf5IE7nbfUCLUvBL9BcR+S6H80i1pEK0sk35q/FFFH0lShfVSR+pqcPc0j83N2Mc2XVot1B5ktLtt+EsKe16rvBUtLM4jO1d1lmgWJZO3JHfxNgXKTHbYl5BOx2JIKVPYbHesIsk8OOOIcnj6WRgO8N6pBbj9wQk8SyAEHuCvNykHYggg+2qQqBu+KsGD8RLuXsxTTQUc5mmlirCIzuLEF+mvTE0sMRKyWEZueVPkVtuY8qtjma5G0PM952peMaS4DA4TJubM0E1kyRRzWWStPHNEkUNOWykUZsLCZrdmaOOJAEI+m6kOiG96fg9Z4Z8M8zUsEfHPictZtiNgVimuwyKYVdSQ3w0JjhMinZ2jZ17MNMAwz0fcYnwufn2HVNynXJ/VdKKs0yD9zz2Zdh9u+iDLDtUh8+RvpFG8sjBY40aR2PsqICzMfxBQToCq309KT8Q8aZLiGdSVgW3kQH/DisZWR69CI7Ag9DHrbg9+3STsexXJTzfMkTwt4jw5UfJWmt08qzFSI1q3UfHZbuDszqBdsnb2eWMkNv81BbFkG+if6/o2/2ToQqm9HP9FL35Fg/nMOouJWWx60QaAaA+DO4OGzDLXsRJNBMjRyxSKGSSNxsysp7EEHbWZRUlhrQ8tKrOlNVKcmpppprRprg12ogDxf6d9sZeOCnKBiJy0ptSMGnpRqRz1ijHeeU8wFeXuGXcy94iZusT2TLum7B/RvnzXZ255P29v3K1/+QKXeLncQzdx0UeEJvlLTyYrz4rXLxTxGX0c5fDnw4qYqpFSpRCKCIdh7u7nu8srnvJLIfmd27k/YNgOyUqUaUVCC0Pi99fV76vK4uJOU5exdSS5RXBJcEZPtrynoDbQDbQDbQGA+M/gvTzlNqlxD+vgmTYTVptiBNExB2PfZkPyyISrAg69W4t4V47svufUczsna1xsu4VxQfZKL8mceal2Pk+KeGmmskP8AwR9P2x90ZmzQjajUl2iSNgVyZ2DK7DctFVCkdSJjzvJzRd0Rml4G22VLf+m8lPTt9y7H+nH6vtnp5TlaxjYbyrTXjN8afJpcpVPRmtIxxLHdGlTn3XgVFVVAVVAVVUAKqgbAADsAB2AHYDXaD4g23q+J2aEGgGgGgGgIm+px4dPe4WmniQu+JswZPZfcQRLLXtvtuNxDUszzkdyREdgTsNQprP0v/MjQGLXh+1ZhrXKtmzJSSaRY/ja9uWW4wgL8qvPDPJYDwIWcRCOTYhn5AJh8XeOmHoWKdS3kakFm/MterA0qmSWR9+X5V3MaM3LGJZOSMyyRR83PNGrMkIaerv4eSS08PlUVmjpT2aVjYfKkeQWBopXP1KJ6aQD6i9lB7kbxmkbr8hXj/SyvD9Ct8RGL+LqQUbteR1WcGtGIYrPISC8FqNFlWVeZOcyRlueGVVpGRi9V3xxqW3xuEqSpZkqWXvXeg3V6M5garUqbIGDWJVszyNErdSMCDdP7ojOowTP8vPhi+G4UoY6VQk8GNdrKr3C27CyWbYB+v+6Zpe/160QhB6MH5/nPyfhf9vI6iKz8+of4aWOHuIsdxVjhyLasxSPsSqJlqi8/I5G5EWTpRukioux6Fstu1jYwHh+m/mls8c5G0qlEt0s7bRG25kS1lqNhEbYkcyrIFbYkbg7E6qDLBvFPzYYLC5GnjMlcWtPcieYO4+grRqwSNrku+1VLDCQRSSgRsYJeZ02HNSHPj/guG8niZnzb0JMekTyrbkliBrkoQJ6lkHnim2OyNC3MxPLs/NynIK/vSIe1928jyGQ1Dh1+M3VUBs/Fwfc8yICxSTpnJcqqxUDqgk7IdEVnz+ciYL4lY9mIVVv8KlmJACgXq5JJPYADuSew1nzjXmlp/wCbOn/jdb+Pi/8APryGD76mRjlXmidJF7jmjZXXce43Ukbj7NAVJ+l1k4ouK7jSyJEpwmSUNI6oC33TxB2BYgb7Anb7Afs1mJqRa7+bOn/jdb+Pi/8APrRkrp9Y38+4b/5DO/7eF1GVE3vAri6ouDwytargjFY4EGeIEEVIQQQW7EHttoQ2Jjs1DNv0pYpeXbm6civy777b8pO2+x2399j9mqD7dAVGeodw/PheM6+ZijJFo43LVyW5Umt4l68U9fm7lAErUi55T2tA7N8w1lmuRZn4UePOJzVNL1C7BLEygyp1UWatJyhmgtRFueCaMEc0cgUgbEbqyk1GT6eAPGvFZWa7Xx1+vclx8iRW1gfnETSLzLs4+SRCQ8ZkiZ0EsU0RYPDKq0FVnipfPCniQ9+aJhWTKfdT5Ad5KGXhmiuTxqgZnaGSzf8AowvNLJWKADnDajKWxQeKGNan90Fv0zR6PX+M+Ji+GEPLzGQzF+mEC9ySw2+vbQhVPwLOOLvEpbldZHpjJR5PmYFSlDCxV468xVu6JZt16n0ZUMPjNmVSJCsNcCS3q8foFify7H/ReV1WRGa+H3hGud8NcdizsJLPD1I13bfaO5DDHPTlOxB2jsxRMw32ZQyncMQQK3fJv4btnOJMXj5BIYasxvX4WI3rQUmWaSKWJz9GJ7gr05owvOeu24HKzJMDJL71ivzjA/u8p/3dPVYRKXJeJy4XgtMoeUmlw/WliRm5RLZ+CiSrDzbHYz2WihXZWJZwArHYEiFY3lJ8nmX4jgtXqOX+5rVJ/g5LLG317MrwxWZ/pa1iCQL9JC8gd36jsCRvGC0wU2B47+nrxBjsVcydvPjKw46I23qyNkHbpp2nliNq3YRHhgaSQ7R7uqsm459xcAk/6V3iV8Xw7Jj3YmXEXJoBzEljWtE3K5G/cRq0s9dB7AV+UbBdgBFLw/wUFrxTkr2YYrFeXO58SwTxpLDIFoZSRRJHIGRwsiI4DKdmVW91BEXFlfA9vz2+CknCWZx+d4fUY6tZkHTWqDFXq5KuOo0HSjZV+EyFZGZ6qqsTiG2p2EyjRohOXGcUwca8H2WqMIjl8XdpsrfN8JeeGWtLE4JXm+Htb7HdRKiq6nldW1SEB/Tb8wdfA5O9jstIKMOQEUZeyRHFTyVJ5o3gsu2whMokeEvIVRJayISDKuiKWfeIPjPisVUe7fv1q9ZF5udpFYydtwkEac0tiV/ZIoUkdyQFViRqkNF+oB4xQwcHWpas8Uq5qODH1JY3V454MivNPJC6nldTjRZlRlJB2U/MOxjKQr8uXkKzuYxUGVo5v7kQ3Gm5YB8fFJIleeWBZZGq2q6ujlGeLmVvo2DA7SHUQPE81fkizGCx6ZHI5YZiE2I6b8xttJXWwsnK5e3ZnPSeVUh5E2+kmQ7HdiDCLHvJx4pHMcJ421IxeeOo9K0zbczWaBepLIwXsOuYRYHt8sq9l9hSEDfSDykUOTutLJHEDhoQDI6oCfiITsCxAJ/ENTmUtUXjGmewtViT2A68Xc/wtaIejdupGjSSOscaKXd3YKiIo3ZmZiAqqASWJAAG+o2ksvgajGU5KMU23oktW372Rt4D89+LvZeTHAGGs7LFRvyNyxW59yGRlIBgWU8orO5+mO4PTZ4Vk4iltOlOr3PguT5N/PB8/Zn6De9Cr21sVdvDqLLnTWsoR6+1x/1YrWC18ZRluyXLa5g+eGtuJPMjgac8la1lqUM8J5ZYnmHPG2wPKwG+zAEbqe49jtr053lCD3ZVEn6zn7fo9tO5pqtRtKkqb1UlFtNdmnXz5nnffa8Nfs1Q/jh/Vrx9/wBv9bH2nteC22PsVX8D9w++24a/Zqh/HD+rTv8At/rY+0eC22PsVX8D9w++14a/Zqh/HD+rTv8At/rY+0eC22PsVX8D9w++24a/Zqh/HD+rTv8At/rY+0eC22PsVX8D9w++14a/Zqh/HD+rTv8At/rY+0eC22PsVX8D9wPm14a/Zqh/HD+rV7/t/rY+0eC22PsVX8D9x7fBvj9hchOK1HJ07NgqziGKUGRlX8IqvYtyjudtyBudtgTry07qlUe7Cab9Z6F5sTaFlT7rc21SEM4zKLSy+C+/lkz55QASSAANyT7AD3JPtsNe0cLh8OZGOn5+8Q+ZOP8AaidoUyxcfDta5tiOXbtUPZEuFuVnBPKIikzcMtqUnV3PN4b3b7up8/1+jz6DX0bDvr/W4ujjxlHH/lx4zpeUo44zzBSeVtcyfODnQDQDQH4mhDAqQCCCCCAQQexBB7EEdiD76Agv4wekziLsskuMuS4oSksajQR3aCMTzfQws8E0Sb/gxCyYowAqJGoULMFyeN4bej7i4HU5PJT349yXrVKyY2CYdxyzMstmzy7f/ZsQMf12x20wMk6uKODKt2pLRtwJYqTxGCaCUFkkiI2KtuebfsCG35gwDAggHVIQH8QPR2pTSFqGYlrxcxKw36UeR6St/g45UnpSFV7AGXqyED5nkJ5tTBcm1fLr6amGwViK7PLLlLcDK9brxxw060qncTQ1I+beZW2ZHsSz9NgHjEbDm0wMktMlT6kcke+3OjJvtvtzKV327b7b76pCOflD8ktfhGS68GQnu/Gw1ISJoY4umtQzlCpjJ35uu2+/2DvqJFNr+Ong5Wz+Lt4u3usdlF5ZUAMkE0brLBYjB7F4ZVVwp7OAUbdWYGkNG+WLyAV+Gco2Tiydm47U56fSlghjULPLXlLhozvzA11ABBGzHUSB6/mP8gWF4jsNedrNDIuqLLbpsm1gRp04xarzJJDKUQIglQRT8kcadXkRVDBSOeJ9GiBZy82c3h33Ar4qKGz39/p5LdiMMRv3+HP7WmBkm/4F+AOM4dp/BY2EorN1J5pG6lm1NsAZbEuw5m2AVVVUjjUBURF7apDQ3mP9OqtxHlZspNlLNVpoYIGgjrwSR8sCFNy0h5iX3O42A27bfWc45lzyNUf/AAYsZ+y9j/MKemO0Ev8AyzeX+LhnEx4mCw9mOOaxMJZI0ibexIZSvJGSoCliBtt227dtaIRLvejxQkJ583bYFi/K1KqwBJJ7bk+25APvtrODTZ80fozYwEEZix2IP94U/qIO3+XbbVwZJE+bPybQcVtjmmvz0jjluIvRhil6ouGoW5uoRy8nwi7bb785+zRgjs/ozY0kk5iySTuSaFMkk+5J+snUx2lySN8ofk5rcIpfSvckti+9Z26kEMHTNdZlAUQ9mDdYk83cbfj7UhIfVBgHjV4GY3iCkaOTg6sXOJInRjHPXmUELNXlHzRuAzKfdJEZkdZEdlIEG+IPRqgkmDQ509EHYi3i4bNjl335RNFaqx7jc9/hwN/q995guSSXle8iuL4Xme5DPauX5IHrGzYdY0SCRopHhhrQBIgjSQxvzTdeQFQBIBuCwQy3zIeVTFcTwRx3lkinr83wt2sUS1Bz7c6AukkckMnKvPDNG6kgMOR1V1Ah6vo0Q/Ec7Z3eHff5cTELW/29drjRcw+pvhvfY7dtiwXJMzy8eWHFcM13hx0btLPyG1csMJLVlowQnUcKiJGm7FIIUiiRnkYIGkkZqQ83zW+WOLiqjWpTW5aYrXVurJDGkrMy17NfkKyEKFK2Wbfud1H26Azzwg8OkxGLx+LjlaZKFSGokrqFaRYUCB2VSQGIG5AO2+gMtWID2AH+TQEf/Nv5QoeLEopNfnoii1llMMMUpk+JWFSG6p2Xk6QI2Hcn8XcD0fGjyxDM8P1uHzfmqwQCgss8cMbyTpQVTGpR25UDTRxTHbm/O+Ue++pgpkXlv8B4OG8VDi4JnsCOWxM9iVVSSaSxM8pZlT5RyKyxKB+ojXVIZ9xLw/FbrWKk6LJBZglrzRsAyyRTI0ciMp3BVkYqQQQQdARy8p3kfj4TtWrEGVs3Et1oq8sE8ESAtBIzwTB425udBJMuxBDCUn3UamAfLwl5C69Tik8UDJWJJjdv3RTMEKwhr8FmuydQHqERrZZgT3YqN9gezBcm6PHrwXq8QYq1irZZI7AQpMgBkrzxOssFiMHYFopUVuUnlkXmRt1dgaQ155T/AClfmUFyKHKT3a1xkmaCeCKMRWEURmeNo27GSJUjkUqeYRQkFeRueJAxzzHenlh+ILD3llnxuQk2689ZY3htEAKr2a0i8rSBQFMsMkEjgAOz8qcrBTQ3Cno11o5Oa1nHaPf2o4yCnNy/Z1Z7F5Ps79A/te2mBk3l4xen3SyeNxOIq37WOx+I+IaCFVFtpJp9vppZbTs/NGDMFVdlAnkAAUIqsDJInw04DhxeOo42vuYaNSCpGW/CZIIljDtt+rfl5mP1sTqkPH8dfCGDPYm5ibDtHHbRAJUUM8MsUqTwzIrfKWimjRwD2O2x7E6gMI8rfldXhilcox5Ca7DasGyOtEkZhkaFIJAnIxUq6xRttsuzBjuefsBGFfRtx/IkbZu2yoFADUqrD5Ryg7Envt9epguT6+HvR6x1exXsLl7BavPDOo+BqLzNDKsoUldmAYrsdiDsTq4BjXnQ80c+SsT4isJa1CrK0VkOrRTXZ4m7iVGAeOsjDdImAMp5XcAci66jtC9lUk6UdIrj1v4fr6uP6E6H9GadnShf1sSrTW9DGsaafNddR85LSnwXj5a0x4HeDz53IxY5Jo4FdHlmkcpzCCPl6ghiY7zTEMAqAFQN3bZUIPH21B16ipp4XH7uzt+Wdw25teOybSV1KDk8qKis43nnGWuEVjLfF8I6yypqebPzDS8P1K2GxxsfFyVVUXrBkkaKsg6XUjml3+JuNt3fdhCSHbu0aHsN/du2iqMM72OL6vXzfy+3450W2BHbFed9dbvclN5pxxHelxxuryKS5cN/VQ0TlGu93JJJJJJLMzEszMxJZmY7lmYkksSSSSSSTrqvrP0BhLRLC5LklwSXYloktEjjQYGgwNBgaDA0GBoMH0Y7JSQyRzQyPDNE6yRSxsVkjkU7q6MPYj94jcEEEg1Nppx4o8dSnCrCVKpFSpyTUovg0/nK5p4aw1ksY8FvFAcaYS9jL3xFe0kS17VmqHjilDjeOWN1+jDPy/T0pCVdSw5Xik2HbLat37RdOeU+Da+favbpx/Pe2dmS6M7RpXVu4zp53oRnhtY4prqXCnWjjEuDjOOFAPxK4Blxd+1jp3hlkqydNpIWV43BVXU7AkxsUYc8L/NG26nfYM3V6tJ0punJp46vnj2P4n3fZu0I39tTuqaajNZSlo1jRrtSfCotJrD0eUpY+RnzSWBNBgLomsxuCuPnUNLLXCLua84ALGqqj5Jz+cDZHPJyGPndnXst5UZ69T9/Z2/L+XdNejNLuctp2+IyWO6R0Slnzo/73zh5+rjqmifeuzHw8aAaAaAaAaAaAaAaAaAaAaAaAaAaAaAaAaAaAaAaAaAaAaAaAaAaAaAaAaAaAaAaAaAaAaAaAaAaAaAaAaAaA430B8GN4grzPNHDPDLJWkENhI5Ud68pjSURTKrExSGKSOQI4VuR0bbZgSB6GgGgGgGgGgI2ebTylR5uI3KYSLLQpsrHZUuxr7QTn2Dgdopz3Q/K26H5eIvrFV1vx0mvz7H+z5fkfQei3Smey59wr5layeq4uDfnR/WcOEkuUkmq8/D7gLKT5SKlRinhykMx2HzQyUpIWHPNO+xMEcO453IYMGVFWUyoknVKVOpKqoQTVRP2dvqXsfbk+9bQvrKlZSuLiUZW0o/8lUT4RS5ym14q0cXHL3HBuNpviP4Fw5nFR0co6zWUiQi7DEIXjtqgVrMCEv0wzb80JZkdCUbce3datsq1NQqcevtPzLs/bNTZt47myW7Bt+JJ7ycG/Jk9M4XnYTUlmOGV08TeTniOvYlgTGy20jcqlmu0PRmX3WRBJMrruCN0dd0bdd22DHqktn3EW0oNrk1j92foG16X7Jr0o1JXCpyerhJTzF814sWuPBp6rDai9F5n3qXEv7C3P4Vb+0aneNx9W/5fee14UbI+2w9lT+w4+9T4l/YW5/Crf+vp3jcfVv8Al948KNkfbYeyp/Yc/epcS/sLc/hVv7Rp3jcfVv8Al948KNkfbYeyp/YPvUuJf2Fufwq39o07xuPq3/L7x4UbI+2w9lT+wfepcS/sLc/hVv7Rp3jcfVv+X3jwo2R9th7Kn9hx96nxL+wtz+FW/wDX07xuPq3/AC+8eFGyPtsPZU/sMk8PfJVnrluKCzTlx1cnmmtTGFhHGNuYRokrmSZvZFIC7/Mx2Ug+Sls6tOSjKO7Hm9P2b19f+eM2h0z2ba0JVKFWNWp5sIqWr65b0Y4guLw3J8ElneVgN7wfko4ObGcPSR0LCwMK00qlyZm2Lyyv+F15u4NgrJ0mZXEcgjEZ7Q6Dp0XToYTxo+3556/efCYbUjdbRjebUTqQ3lvxTx4vJRXoR9Bbu8tN6Le8qq4fDrIy5E4v4Wdso07RPWfvL1T87ySyEsOns3Wa0WaNo2Eod1dS3SFSm59zw9/PB/m2/wA+3reT9PS2haU7RXndIq2UU1JeTupYSitNVjucaSSlGS3XGO68WeeWLyx1uH625Kz5GdR8Xb5fx8wr1+buleM/tNKw5378qp3Ozs428euT4v55H5v6R9I6u2KvONvF+JD+qXXN9ukVpHRG79cidOGgGgON9ANANAc6AaAaA40BzoDjfQHOgPjy2ZhrxmWeWOCJduaSaRY4137Dd3KqN/xnQHfVtK6q6MrowDKykMrKfYqw3BB+og7HQHZoBvoDnQHG+gG+gOdANAcb6A50A0A0BxvoDnQDQHGgOdAcb6Ab6A50A0A0A0A0BxoDnQDQHGgOdAedxFgktQTV5DKsc8bxO0E0teYK6lSY54HjmicA9pInVlPcEaAri4k8k/E3COQOW4OtPkIXbaWjMYxZeNn5ulcWSWCvkoOozt11epah5t1LM00xmAWMcK2rL1oHtxRwWmijaxBDKZ4opioMkaTGOIyqjbqHMab7e2qD1tANANANAcEaA82pwzXjnlspBElidY0mnWNRLKkPN0lkkA5nEfO3KGJ5dztrChFPeS1fM88q9SVONJzbhFtqOXhN8cLgm8a444PSOtngPKtcTVksRVWniWzOkkkMBdRLJHFyiR0jJ5mVOZdyB23/ABHbLlHeUW9eo80aFSVN1Ywfc4tJyS0TfBN8MvGnXg9RdXB4TnbTCA20wBtphAbaYBwx1UkDzMTxNWneeKGeKWSrIIrCRurPBIUDhJVUkoxVgdm2/wBB2xGUXlJ6rj8+o81ShUpqMqkGoyWYtrCks4yutZWMrmj1NbPCeavDNYWDbEEQtNEsDWOmvWMCsXWIybc5jDsWCb7bnfbWNyO9vY16zzuvUdPuO++553t3LxvPTOOG80ks8dD0gNbPAc6AaAaA0P55uKLNLhXLWadiarZiSqY54JGiljLXayMUdSGXmRmU7HurEfXrL4FXEr+8BeGfEDiSpPdxnEM4hrWmpuLmZvQSmdIK9k8ix1rCGPp2ogGaRSXDgqAoZgPTfzT8d8G5CKtn+e/C45xBbNeRLUCMFlfH5OCNH6qFl3W0ZGj5ourBEJo3IFoPhx4gVsrQq5Gm5etchSaIkbMAw7pIv6iSNg0ciHujqyn21ohUXwDxnxln87fxWLz92OaOfKzILOUtwV0rVLxg5FaKOw3MoliVE6e3KG3YbANkpui15S/FJlZRxLGpKkBhn8pupI2BH+5w9vf3H7Y0BZXTQhFDdyFAJ99yB3O/19/r1oh3aArJoeNWYPigcYcneOO+7EsPwPxMvwvSGGecR9Hm5OQTfScu23N321Clm2qQjJ59PLAeJcWpW61aXFizcghlCGhZlEQ/vsFDIjJGkiRWI3HQ68rNHODyaA116RV6d+GrPOJBVXLTrQV1KqkLVackyw/V0xcezzchKifrjfmDgQHo+p94+WcPiqVajblp3L9suZoJWhnjpUk6thkdCCoad6kL/bHK4+vcUEd/K9465/G8YUMXnMjfsxXYYq0kVy1NJFFJkaEGRpyokhZWlWbp0eb5dnlnUHsVbKKWr60QrMr+NOY//wBR+5n3Tvfc77rtD8D8TL8L0vuKZ+n0ebk5et9Jy7bc3fbUKWFeKmIt2MZkYKEvQvT0bUVObqPF0rUkDpXk6sau8fJKUbqIjMu24ViADSFZviz4ReI+Ex1jKXuI2NWqIjKK2byMsx6s0cCckclKFG+klUnmlTZeYjcgA5KeB4A8N+IHE1WxcxnEU6w1rTU5PjMzfgkMywQWCUWKrZUx9OxGAxdTzc45QACwFk3li4Ny2PwtWrnLQu5ON7TWLIsS2g6y255YFE88cUr9Ou8UXzRry8mw7AE6IbU0BUDxl4g8V5LjHIYPF5y9BJPl8pBTjkyNmCpClVbVkoTEszRosFZ1RUif5uRdlBLLkptBvKf4o7fpkjH/AG/lP/bdVAmN4nTXqHBuQaSw4yVPhu0ZLcUrtIL1fGPz2I52CyM/XQyLKyqxOzEA9tUhUdw55vOJqs9a22YytmOCzHK0E1ud4LQrvDNPUbnJjbqROiOvcos8bEDnQnKKXjcM8Rw3K1e3XcSV7UMViCRSCskMyLJG6kdiGRgR+3rRCqzzyeazLvxJdqYjJZCrUxcSVXSlNJHG9iIGa7ZfonuInmWq7P2jas34O53yUlf6ZvHt7I4G1PkLlm7MuWsRLLameaRY1q0mWMM5JCBndgo7bsx+s6qDIp+Z/wAT+JJeOMjhsXmb9UTXcdVpwLesV6scljF499to+fpI0sjyMUjb5mZuUkneA7PErgjxO4eqyZOxmLMtavs08lXInJfDx77GaareqBTAh26kiRS9JSXcJGkkiAS68g/mvn4mo2kvrCuSxskSTtApSOxXsKzVrQiJbpOzRTwyRqzLzwdRemsyxx1ENCebDzm5q/m/zMcKu8ciWDSls1+ibNu4qlrEEEsu8datTVZBYnHJKJIJ/nhSAmeFME4t8q3iPiazZNc3btNWRppYKeey1yyqKCWZK1yFK9zkTd2h+dmAKpFOxRXAkf6e/nPn4hjmxuTaN8nUhWxHZQJGMhTLLG0xiQBFngkaNZukqxOJ4XRU5nRKDW/qqeMeUxVvCjH5G7Rjkp5OWdaliSESmGSjyFwjKGKK7hd/bmP26MGFXPA3xSgqLfhzM1teithYK2YnntMjIHHLXu1Iq0rhTuYjI3NsQokPKrQG4PTt8693PSz4nKuli3FV+NqXUjWJrNdHiinWxHGqQiaJ5oWWSJIxIkjAxqYS8tQMW9VPxiymKtYQY/I3aMctTJyTrUsSQiUwyUOQuEYBigkkCk+3Mft1GEYfW8v/AIpfDR3a+cawHhSeKGPN2GndXQSIoju1I6hkIIHLLMI+bsX276A9fyseoFl6+VjwXFQLtJZWiLUtdK12ndkcJFDejhVIJYZZHjiWeOKIxh45WaeJ2mjAsr1ohWl50vGrN3eManD2CyVuoY4q9V1qWJIFe9ZV7kzT9NhzrWoiCQDbdQZgOZmAEZTNPSv8xlzLRZSjkblm5YiNbIVpbcrSy/DWI+hLCrOzMVglhSQgdlNofb3AnzqkGgGgGgGgGgPK4qtWErTvUiSeysTtBDJJ0UllCkpG0vK3IGbYc23bf3HuMTclFuK15HnoRpyqRVWTjTyt6SWWlzeMrOFy5lOfG3HuTmykt65LPFlIp/mYgwy1JYSQkMSd+ikO5VYxupUsSZOo7P0CpVqSqOc21UT9nw/bjnOv62s7Cyp2Uba3jGVrKP8AyVRSWsm/OlPnLRxksR3NxRjYj5TfNjFnIhUtlIcrCm7oNljuRr2NiuPqYdjLACTGe43QgjtljfKut2Wk1+favnT8z8/9KOi89lT7tRzK1k9HxcH6Mv6J8JpcpJxW2uNvGrFY2RYshfr05HXnRbD9PnXfYshbswB7HlJ2Pvtr3qtxSpPE5JPtOsWeyL29i5WtCc0nhuC3sevHDPFZxlGOffYcNfs3j/8AOE14e/rf6yPtOS8F9r/Yqv4GPvseGv2bx/8AnCad/W/1kfaPBfa/2Kr+BmWcDeK+NyfUOPuQ3BFsJGgbqKhb8EMwHKGO24Uncjvttrz0q9Or5Ek/UcTe7NurFpXVGUG+CksN9uHrjt4Ec/OD5wRjRJi8XIGyLDlsWBsy0FYfgr7hrjA7qp3EIIdgSURuJv7/ALl9HTfj831fHqXt00ffeinRN3zV3dxatl5MdU6rXsapJ6SksObTjB5TlCGPl942y1TLwPiRJYu2ZOSSsSzLdRm55RaYnso3aVrTneFt5OY7sr9etalWFVOlrJvVda637+Przh/YNv2NjcWM1etQpQWYzSSdNpYju+vCh3JaTisJLdUoXBVmYqpcBWKjmVW5gG27gMVUsAewblXcd9h7a76u0/KLxnTgduqQaAaAaAaAjp6hX6Tsz+4qf0hU1mXAqNTekT+l/Kf9IJ/6Kw+quBZcTKPVK4Vin4UlsuoMtC9j54H+tTPbjoSgH7GhtuCPbcKfdRsZEeb6T/ELzcMTwN+DRzF2vGd990miq5FvqG20t6QADfsAfrOqQgp5dvHuvw1xVkcpar2bMPUzlTp1OgZg8+TWRX2sTQR8gFdg30nNuy7KRzFYUnd4Y+qDiMrkaWNhxuWhlvWErRyTDH9JHffYv0r0snKNjvyox/FpkhMvVA0BUtjf994/l2X+gX1CltOqQ0p5m/AO5xFDXox5mfF4xzKMtBVgiaxkIGEfTgSzJv8ADpuriVTHMk6PyPGyhlcDZPh/wDUxVKvj6MK16lWMRwxKSdhuWZmZiWkkkctJJK5Z5JGZ2LMxJArD84lk8T+INHBoeevVlpYx1O3KVYfdPLupXc7mkRCebb6Sptsv4RyU9b1WuDJKGZw2cqDkklrrCr7bRx3cRYW5SJ2APPIth/l5u8dQ7AcrEgiyTw244iyePo5GA7w3qle3Hv2IWeJZQpB7hl5uUg9wQRqkKvK3++//ANuP/wCHzoUtn1SEc/UN/Sdmf3NL+kqeoyo1F6Q/6BZb8vS/0XitEGTp1SDQFLdrxXhwXiFdy9iKaeCjm800kVfp9dxYgv016fWkii3WSyjtzyJ8ittueVWyUmNwv6sOGt2qtRMXmI3t2q9VHkXHciyWZkgRn5L7vyB5F5iqMQN+x1ohIvzVfpY4j/IWW/mE+gKpvCnwo+6XAvEdhB9Phs1DlE/HBFjII7ynsSVFOSaYKNuaWCL6gQclJVeSXzWxU+CMk9pw83DCSokZZQ01ecNJiolG426k7NjYR+qaAAbk7BkEW/A/wxlm4Y4z4jtkyTNXFCGdhsZrFi5VvZWfYAKepI1VQy/guLKDlHNzATS9Jz9Llv8ALNn+aUNEGRa8b+IIKninNasypBWr5jDTTzSHljiiTE4wvI7HsqqO5J7AaBEq/NZ56OGXwOUp0slXydu/Qt0YK9Tewoe3A9fqWJFHRhhjEhkYSSK0ioyxrI+y6oNc+klwRPBUzmXdSte01WrWLKQJjjhbksSof1cYktiDmX2lhnXfdCAQZqX0oazXeJbWQnIeUYm3YYkdzZv3KbySj7CR1wfrIlPf33iDLbSNaIU9+VWucZ4lCnABHD91uIsf0125RTWPJTQQqNtlVGq1SAoGwiCjYayimf8ArLQlrWDVRuzY/MKB9pMmOAHft7/bqsIkRX9SHhOljoQL01qzBUiUVYKF8PJLHCq9ITTVoqqbuOXqSzpGO55tgTpkEdfSt8OLdvM3uI3i6dP4e5XSRQejPcvW4bEsdVjt1IaohdHYAqpkiTfmSRUIM59Zz++MH+T81/t47UCLIvDP9Dcf/wAxqf8AcR60Qq39XnhlK2aqXYd45buJkLsh5fpsfKVjmBXZhLyWIk599wsEQG3LqMqLTsPxIvwEVyZgifCJZlY9gi9ESyMfqAUbk6pCsf07aL8QcZZPiGwpPQS1fAf8OKxlpZIaUe/sfh6CW6/v2VU2HYbQp5fBUx4U8T5IW+jq3MjNV3IOxqZ/ks1QgHYJFkZK0HOQQq15N9tmKwFtQ1ohzoBoBoBoBoDgjQEa/Nt5S483GbtIJFlok2UnZY7sajtBOfYOB2inP4B+Vt0Py8RfWKrrehpNfn2P9nyPoPRbpTPZc+4V25WsnquLg350ez04LylwxJJkffJ/5Rbli5Hk8klijBSn3hhPPBasWYWKtuQRJFXicFWYEGcgqDycxfirCwnKfdKi3Unw5tr9v19XHvXS3pXb06Ds7OUak6kfGlpKMYv16OpLik0+5aN/SYVOavjX4JUs5SapbXYgl69hAOtVm22EsRP7zxn5ZEJVgQRt2K4t414bkvufUfHtj7Xr7KuFXt32Sj5s1zUsdfWtU8NNNFUfi14TXMLdeldTZhu0Myg9G1DvsJoSfq9g8ZPNE3yt+pZukVreVCW5Nep9fzzXL8z9QbJ2tb7ToKvbvThKPnQl1P8AaS0mllYeUva8AvAO3xBc6EG8VaIqblwruldD3Crv2ksSD87i/wCu2yjv5La1lcS3Y+Tzfzz/AE59T9Tb23aGx6HdKnjVZL6OGXmTXN9VNPynxfCOusbWPDrwxp4ulHRpRdKCMEdiepI7fhyyyDZnmkPzNJuDvttygKB3elSjSgoQWnzr62fmC/2hXv68rm4lvVG/uWuiS4KC4KPDBXf5gvJjkaOQQY2GfIVb87Cu25eaCaQs7RXJG9lHzyC5IdmRW6jB13l6pdbPnCp9Gsxlw7PX2c8+3Xj972B0wtLm1ffc406tOOvKMktE4Jc8eK6UcbrxuLceKcy/LB5Y63D9YsxWfJWFHxdvbsB7/D19wCleM/tNKw532+VU7BZ2cbePXPm/nkfJuknSOrtitpmNvF+JD+qXXUkuPKK0jotd465E6aNANANANANAR09Qr9J2Z/cVP6QqazLgVcTU3pE/pfyn/SCf+isPqrgWXE6/VX8Y6sOGTBrKrXshYqzyQqQXgpVJ1s9eUD8BZbEEUMQflMp6zIGFeblMiNhemlwC9HhOnJJH05MlNYyZHbd4rDhKcp2J/PaENWQb/MEZQQpBApCEnkR4Sq3uN8lBdrV7cHJxDJ0bMMc8XUXLQKsnTlV051V3CttuAzAEcx3hS0fFeBGDgljmgw2KhmiYPFNFj6kcsbr7PHIkIZGH1MpBGmBkzrVINAVLY3/feP5dl/oF9QpbTqkGgPJ4u4nhpVLNywwSCpXmszOTsFigjaWRiT9iqToCk7wIwnFuXyd7NcPQynIrNLZtTpJjl+GfKvPI0SHJsIXJAljHTR3jjUb9MSJz5NGwPH7ww8R7WPkm4ijsWMdjufIOZJuHyK/RhlV7AWg6WX5IJJQUUOCrE8hKqQyNCWvpU+J/xfD82Od95sPcliCl+ZzTuE26zlT3WMSPaqxjuvLUIBHKVSojI1Vv99//ALcf/wAPnQFs+qQjn6hv6Tsz+5pf0lT1GVGovSH/AECy35el/ovFaIMnTqkGgKg/DrAQWvFJ69qCKzXlzmfEsE8aTQyBKGVkQSRSBkcLIiSLzKdnRWGxUEZKWeVvL1gEdJEwmIR43SSN1xtNXSSNg8bowhBV0dVdWUgqwBBBA1SHmear9LHEf5Cy38wn1QRM9IqmsmJz0bqHSTJojqw3DI2OrKykfWCpII/HrJSBPizwjawOQzWBRpDElqOu8EfztcrwSrdxAYFeZ5enLXlULses7L8wJBFLK/FnwgGB8MrWM7dWDHRPaYez3J7cM9txvueVrEknKP1KBVGwUAV8DJ+PSc/S5b/LNn+aUNRFZE/zDcHQZHxNt0LIc17mVxFaYRuY36cuIxityOO6Nt7MO40CJscPemPwhBIsjUrNrlIIS1kLkkJ2+p4llSORT9aSK6sOxBHbVwMkm8bw/BBAlWCKOCvHEIYoYUWOKKJV5FjjjQBERV2CqoAAG22qQqL9OnNjBcYPjbr9IyQX8Gef5VN6vagMIJPZeqac0cRJAd5o0G7SJrKKy3nMZeKvFLPPIkUMMbyzSyMFjjijUvJI7HYKiKCxYnYAHWiFSfkRxzZnj6fKoJOhDPm80WKt8q35LFapDLzD5HaPIM6oSG3rSAAiN9sopmXrLTlbWDZexXH5hgfsIkxxH+nVYR3eanyJUMfw/Xz2DjngmqQ1rOQhazPaSSuyI0ttPipJmikqSETsI2WI1xPvGSkXKwCS/p8eZls/iWr22j+6mMKQ2RGiRCeu/N8JcWKPZE6qI0UojREFiGUqkaPEuiDIw+s5/fGD/J+a/wBvHagRZF4Z/obj/wDmNT/uI9aIVT+oNxcnE/FVXE4x0s9KOLDRSxbyIb1uwxuEMp5Xiqr0eq6dozXtcx+iblyyk1fUO47GK4Qt1omCyZBYMNAD7tFYHLbAG4+YY6O0QfYMFJDfgtWQgl5cPDTxCho/GcMxWIKGQYy9RJcGnxBhZ64k5MkxsqgKME+VI3U9RQwkDvk1oYR5pPDfi+CSHJ8TpOlmfkpVLzTYxnWSuJrUCKMU4EbwkzTpK6K+42Eh5IwrIRcr4JeI65fEY3JqNvjqUFhl7fRyvGOtEdu3NFLzxn8anWzJm+gGgGgGgGgGgGgGgPzJIANz2H2n21BjJGfPcacN8ZtcwomLT1mL1bKqqszKoD2sbKeYTRxsTHIpULMg5gskTpIeIlUt73NHOq4P912Z0+D1+gUbPa3RpU9obmIT0nHLaWeEKq82Ul40fOi08NVItL1+D/FbhzA3KvDFaQQyBeUvsDELbleWK3Y3G921uW+Ybb8iExtJBG/kp16FvJW8X/nqb63x/wA6+tdbM2rtWhU2xWi5Ry/W4LOXCP1NLG7posPdyoycZBA65Q6Qc6AaAaAaAaAaAaAaA1N5qvCmznMBkMXTeCOzaWARPZeRIAYrUE7dR4oppACkbAcsTfMR7DciMECOHvTc44qI0VTOUqUTuZJIqWbzlSN5CqoZHir0IkeQoiIXYcxREXfZFAmpdDZng56U8cdtbvEOS+6h51lenCkgisSAf8Ot2ZJLFyPsu6BK/UCcshkRmjNQLAYogoAAAAAAAAAAHYAAdgAPqGqQq1s+mZxdFft3KOUxlN57V2WOatk8tTsiG1ZefpPJWx6sAQU54xIyFkU/NyqdZ1KehJ5CfEXY7cUjfY7f/M3Env8AV/wTTUaFkPA2Jmr0qcFiTq2IateKeXneTqTRwoksnUkAkfncM3O4DNvuQCTrRD3NAVt+Onp28S3uIslmcdfxlVbVsWasnx+RqXYP7migJ6lWg5ichHUmKc7o5BOzMNZ1KeR94V4if8aB/KbiT+yaajQsF8FOFrlHEY2nkJxavVqVeG3ZEss4nsRxqssvWnVJpedwW55VV233IB1ohivmz8M8jmcDdxeLlrQ2boiheS3JLHD8L1o2tIWhgsvvNCrwbdPbaRjzLsNRlMW8jnlmn4XxM1W5JXmu27stuw9V5HgA6cVeCOJ5YYJCqwQI7c8Y2mkl2JXl2pDfWewkdmCavMoeKxFJDKp9mjlQxup3+oqxGgIW+RbyX57hXJW5bdrGWKFqmK7ivPbay8teYNTnaOWnFEu0cloSKJnIaYbM/LuQNf8Ajx6d/Et/iLJZrG38bVWzaWxVk+OyNS7BtVhrk9SrQcxOeRxvFOd43IJ2ZhrOpTxfvCvET/jQP5TcSf2TTUaEq/EDy/Za9wQOH5LVefLmjQgmt2bFl681mtPWmnley0ElpxJ0X2kaAuzEcyruSNEOvyH+W7IcMYy7TyMtOWazk5LiGlJNLGImp0q4Vmnr1mEnPWdiAjKFK/MTuBECSmqDjQFZ3ih6cnFFjOZHLY/IYup8TkLdurKmQydW5CllpO3UrY8tFIYpHicRTsCjOvMysQcvJT5vvCvET/jQP5TcSf2TTUaEz18Ick/B0mCs2YrGVlwM+Nltyzzywy3ZqclczSWJIjZeNpX5mkaEyFdzyE9johhHkI8sGR4XpZGvkZaUsly6lmM0pZ5UVFqwwEOZ61Zg3NGTsqsNiO/1aiKzc3EvgLhblyPI28XRsX4jEYrk1aKSxGYG54SsrKXBib5k2PynVIeX5nfDCzmsDksXUeFLNyBY4nss6QBlmjk+kaKOaRV2QjdYnO5HbQGD+Rry93+GsRPQyMlSSeXITWlalJNLEIpIK0SgtPXrP1OaFiQIyACvzHcgRFZqLjLyPZixx0OJY58aMf8AdLHXDE89oXenUpVK0iiJaTQc7PXZkHxOxUruVJIEBObWiDQEKvOD6daZ61JlcXZipZGVV+JhsK3wdx41CxzNJErTVrAVURpkjnV1Rd4uYc5jBpGz5BePr8aUclnoGx4IDrNmMreTlU7qTVkqxC0UYAqk8yAMAQylQdTBck3PK/5XaPC9J69Zmns2GWS7dlVVlsyICEUKu4irwhmEMAZgnO7M0kkksj6IaV9QbyY5XiuXHPjZ8fCtSrfgl+OmsxEtbaq0bR9CpaDBeg3NzFPddubvtAS1w/DoFKKpOqSqKqVpk25o5AIhFIuzAcyONx8yjdT3A9tAQT8D/INxBw5xImSxtzFviknmgaCazcS1NiLDg/DyoKM0ZsVuWGSN/iD1ZaqFnjWaUKRTPvPx5OcrxTYxU2Omx0a0oL0Uy3prERY2nqMnTEFS0GAFdg3OU9125u+xhGiF9ObjiZPh7XEsXwhXptF92s9aiEe3LyfCSQQQyRhfl6RdFK/L2Gphgkz5T/IDjuGZBdkmORyYjaKOy0Qgr1Y3HK606oeXps6DkaaWSWTkLqhhSWRGpDxfP35Vs7xQ2NjxljGw1aSWpHW9PZjZ7c3TSKQLBSsgrDCsigmRSevIOXsDoCTvhrwPFjMdRx0A2ho1K9SP3O6wRJEGJPcluXmJPckknQGs/OV5fpOJcHLj67V47iT1rVKWyXEMc0MgEnM8ccsiCWq9iDnSNyBKflI3BoPP8kfgnleHsMcXlJaMpiuWJajUZZ5UWvZKzukhsV67dQW3suOVCvI6D3B3iBIHVA0A0A0A0A0A0A0BqHzUeGt/LYexTx1kwTNszxbhFuwqDz0nl/CiWbcfMCFYqI5N45JAfRvaM6tJxpvD/XsfwO09Gto22z7+Fe6p70Fz4uD5TS4OUOOHw4xxNKSqciksU7G461S3Um27FobFaeM7EdtmR1O4I9iCR8yt36Mt6D5qS9q+f0fUfqJqjdUvNnSnH/lGcX+q9jUl5slp2cP8M2chZjq1opLdq07BY9+Z5XbdpHkdz2XuXlmlbZRzMzfbY05VJbsVmT/XrfZ1vtM17mjZ0XWrSUKUEsvgklwSS54WIQis6YSS1Vw/gxwlco4ypUv2zetQxBZbBH4R3JVAx+eRYl2iEsu8koQO/wAzHXfrenKnTUZyy0uJ+TdrXVC6u6la2pdzpSk2o9Xbjgt7yt2OIxziKwjNtewcQNANANANANANANANANANANANANANANANANANANANANANANANANANANANANANANANANANANANANANANANANANANANANANANANANANANANANANANANANANANAcaAjB5yPK3XyleXJ1ylfI1YS7yEER24IlLGKflVj1EUHpTBWZfwCGUjk4a/sVWW/HSa58n6z6L0T6TVNnVFa1sytpPguMJPnHLSw+E4ZSkuaksmXeV7yyVsBW5mKT5Kwi/FWgOwHYivX5gGSuh+0BpWHO4HyrH57Kzjbxzxm+L93Z2HG9JOkdXa9bdWY28W9yH9UsaOo/ZFaR01e8tckdMGgGgGgGgGgGgGgGgGgGgGgGgGgGgGgGgGgGgGgGgGgGgGgGgGgGgGgGgGgGgGgGgGgGgGgGgGgGgGgGgGgGgGgGgGgGgGgGgGgGgGgGgGgGgGgP/9k=" parent="1" vertex="1">
                    <mxGeometry x="45" y="730" width="273.07" height="80" as="geometry"/>
                </mxCell>
                <mxCell id="Zy6Fjmy-WP6y4zXZMFv--89" value="" style="shape=image;verticalLabelPosition=bottom;verticalAlign=top;imageAspect=0;aspect=fixed;image=data:image/png,iVBORw0KGgoAAAANSUhEUgAAAHEAAACWCAYAAADpP2fqAAAAAXNSR0IArs4c6QAAAARnQU1BAACxjwv8YQUAAAAJcEhZcwAALiMAAC4jAXilP3YAAAknelRYdFJhdyBwcm9maWxlIHR5cGUgZXhpZgAAeNqtmGuSJKENhP9zCh8BAeJxHEAQ4Rv4+P5U3TPe2Z2N8NrbNV1VXQ8eylSmmHD+9c8b/sEnaeqhaOt11Br5lFFGmpz0+PrMZy+xPPuPT3pf/XI9jPp5W2LmmF8/+/u6fFz/aOh9lMmZ/tBQ3+8b6+uNUd7t958aeo0nZh+Rn9vHiN4N5fS6Ie8G5mtasY7efpzCOq+jfUy0v77Bd2m/H3s//PPv0oieKf3klE6WHNmnXF4DyP6VkCc3hH3KDIqzzrmy+ZX6boyAfBen+MOowjeoyHeolPU9KHT2PBG48DWY9fP47XXRn66/GwxPiH/oOX/EJ329Ps4nu74E2b/3Wg/3ntfsZqmEtL4n9THF54wHmVjJz2uVrfFVztuzDbYeYO8Gcos7LrYtQxKwXCliMuXKeY5bNkMs6aTGMaUNUH6t55ZG2jkGcCq+yU0tj2yglvIG3szV9DkWefodT3dbOh2b8GQSGhPeSMF3f2P7bUP3OuVFPJhlPbFiXMmTgmE4cr7nKQCR+8EjfQL8sf38cVwzCOoT5s4EZ1yvJpbKm1vOo/wAnXlQOb5yTZq9G2BA9K0MhgwoEqtklSqxpdREiGMHn0lDnaRJCwhENRmjTCXnCjg9ed+80+R5Fvl6XUazAEJzzQ1oRp5gVRA2+NNKh0OTFCuqWrVp16Gz5lqq1lpbdfGbLbfStNXWWm+jzZ576dprb72HPvocaWTEUUcdbfQxxpx0Oml58vbkgTlXWnmVpauutvoaa27os8vWXXfbPeyxpyXLhk5YtWbdhs0jByqdcvTU004/48wL1W6+5eqtt91+x52fqEl4wfrL9t+jJh+opQcpf7B9osarrX00IS4n6piBWCoC4s0RgNDJMYtdSknBoXPM4kDZsiZGqQ6OiSMGguVI0iuf2P0HuS+4hVL+L9zSB3LBofsbyAWH7jfI/YrbN6iZu82OOTwIeRp6UGMm/XhonrJ2MQyj3njqWrNq3/QhkRGhRU0t79Fp+VRkqe8WioyIEJ37jEXylbRKWc2UaKw6Tq1rEFYDhmrT1j4NHSOjVmvp8va6g8CGcqrK2q3liYBOAr5SN71d73UBuRiULj/vXafZJcoH2Zt9Z2ZoYifBgRpWVzOyuO2h+5QRpaebmB982eskuHO85XlAtFYGAnqoYhPkWk4dq2H0aYR97dgpt5yWmd/wzglHb3cz23Z9LLH4HtWt/d5eat35njbreu72xFMn2NKdgffSzjBFrku9m+hey4uIrN3trHg7DryYG7k+e9O82jg6ThtST7eNQu6ai+0urVXypMnqp1hrC0JfYcIn0bNpFQUEUFgwmXzHhVLlmZ60R+ANB2KdRad7MF6RQe+XK/MZ9onjOS4QnevuPExOtARwzD8u23iYs7cEmq3xJriZ4+q2Ru7IBb7UFnwoaqXBZ+s3ryyzkQ/2JNvlvoCi3ZssnhWOFzzzrvs6OQvPjjN1/v7oGP7kBWC9rx8F0yWzjtd1ODNZH7ijDyd2Yay1QsBcR0FaAC8lMq2dUkfGg0k3R/DYNmDLpVVQPEMTAmKhAsOCpnPUbhdgH1OXa2ltFBdS3Y6WkM0E2DVoQBjpR6Ef16OOWJGLFiy3KAacMDNWlI2twuJ1YyuzFysQUc9ZK8Gqe0qbdAIdzKrn8kjkZh8RQu4ykRu0jShnil5o0FUH3DtSe/oKBm5ZlD+vWr8cQ/zNjT89hthggu6CKaB7aDPhHdgAgV1yLplgZMwaN+2LgnhBd4BrIloIjJCPZI81KjZye6mHNq8IL1HizJOIMu838kj9zdicgMQnul52JkosD1UWWemCukpoYE9RnkmyDSDiZrJKzXM4Z1DWnUCSnFrF4I3jiMrPRvIl5mTLlOyfN9SbsjIcOzgSonjjhDAZLaYL2TdDFiIPq65W9FrkUJLks/q+7eRFl3fLsSBWCyULk56+WGiJim7ii+h2I1MzESQHryKYM4I2Im33wMbr9SGCfA9+V1u4SNztVpl60VnGsEFZiJGJ2xyF6LKrkBhFNWa1mQXrMjdVKJbqYAi2Tu3BjlLOjX5gjxd7FRRlN5qFySgnfp2nMEw16I8FLmZwKtRnaOSAucCip2HWtPoT2A5kE1iNRcpGPMH3XplnMAnMRdxKKcXnnm0pZAVE5Js6TYlHCnXHzVKnTYHf+4w1zJ1yp+WFwiiX2xgJ2s8cp+IaV8kB0auTDMiHhh6nXQuQhMhTupZzsW1MnwUASyNMguDuRrW/DnlkU3zdxKSHddxIC369qAgS0hIQmrl3fARnxv/9GH5z465MdQCrzqFr3BrQWUu771K1UMvgps4UvNFQmlLDGduYAF6NVhdPtgWvzI2o3sy8CmuMQpWQO4TRviL+3hwEqhNyBRwPFCkBWzOWKpAa4R+lGPqGHayquEAiKeUexJ3OqLikjFVgKhWbp3f15BHUEpUMJuQoCgvGjE2cqAljp17xNpwW8qLxWF/vluFlJOrmZQIyQvXhhQF11yURl8BU5KsjjZu6DdsmBixFLuvjMxxDUdy3ubTv4rwmXWaxGMgq6pOB/96RyqrHBYp37CL38kQZdcdcVyNDBdGPlGWotlKpJFg775m7+gqSguunWbGqf+YFeDAHG0YFIlbCYluJaV+5DVfrgzxSAzrhaoiKdikRpNqBmoggBoNeIpPkqS7qq+X1B0BiAUc34lcgoVB4LtRmqwvHySFfjoXEvu7sjAptoQLIGtG+Nmaj/Uh+nz25j1beSXlnlGmDlKqJB5Sl6wT+icvAO6CclxEopYmDRNO+yMhobnaMMhK6WL4WVlbFxXYOOqfUNkxKe0DPKQT1sQB3XYCjAKL+yziRUgsikA921t0txIvy74wk/AUneoyIRc37l1JbQQLKcSEHOk56CHaHRazNe4nplIhvZEVgBSriH3fBjI2g6xrBqlMojcNKIlNzgQ4OFymkMQ3Kbtn0UFy8BSFEBhuqReFERTopSdslT8AjB28cKWJ9auSlS+20yqIUraMEoBxci1ZnN1/w1OW+ZtOx7dwm8S5EK5p2oOAu6bgTzNxYxVL5NGTC/z9kk4UIomKkK5x+CiA3lfic/hSq8Bdi/UtDlMs2wr8BGjYDrtZs70EAAA0YaVRYdFhNTDpjb20uYWRvYmUueG1wAAAAAAA8P3hwYWNrZXQgYmVnaW49Iu+7vyIgaWQ9Ilc1TTBNcENlaGlIenJlU3pOVGN6a2M5ZCI/Pgo8eDp4bXBtZXRhIHhtbG5zOng9ImFkb2JlOm5zOm1ldGEvIiB4OnhtcHRrPSJYTVAgQ29yZSA0LjQuMC1FeGl2MiI+CiA8cmRmOlJERiB4bWxuczpyZGY9Imh0dHA6Ly93d3cudzMub3JnLzE5OTkvMDIvMjItcmRmLXN5bnRheC1ucyMiPgogIDxyZGY6RGVzY3JpcHRpb24gcmRmOmFib3V0PSIiCiAgICB4bWxuczp4bXBNTT0iaHR0cDovL25zLmFkb2JlLmNvbS94YXAvMS4wL21tLyIKICAgIHhtbG5zOnN0RXZ0PSJodHRwOi8vbnMuYWRvYmUuY29tL3hhcC8xLjAvc1R5cGUvUmVzb3VyY2VFdmVudCMiCiAgICB4bWxuczpHSU1QPSJodHRwOi8vd3d3LmdpbXAub3JnL3htcC8iCiAgICB4bWxuczpkYz0iaHR0cDovL3B1cmwub3JnL2RjL2VsZW1lbnRzLzEuMS8iCiAgICB4bWxuczp0aWZmPSJodHRwOi8vbnMuYWRvYmUuY29tL3RpZmYvMS4wLyIKICAgIHhtbG5zOnhtcD0iaHR0cDovL25zLmFkb2JlLmNvbS94YXAvMS4wLyIKICAgeG1wTU06RG9jdW1lbnRJRD0iZ2ltcDpkb2NpZDpnaW1wOjQyMWU1MjlhLWY2YTAtNGZlOS1hZTY5LTg5YjFjYTNkMGM4MiIKICAgeG1wTU06SW5zdGFuY2VJRD0ieG1wLmlpZDpmM2Q0ZTZiZC1jMDg1LTQ5ZDktYTcyYy04NzhiNDQ1MDM3ODUiCiAgIHhtcE1NOk9yaWdpbmFsRG9jdW1lbnRJRD0ieG1wLmRpZDo1M2Y5NTUxNS0wOGZmLTRlMDctYThiYS1lNzhjNjY1ZGM3ZmEiCiAgIEdJTVA6QVBJPSIyLjAiCiAgIEdJTVA6UGxhdGZvcm09IldpbmRvd3MiCiAgIEdJTVA6VGltZVN0YW1wPSIxNjM3NjkwMTMwMDMzMzc2IgogICBHSU1QOlZlcnNpb249IjIuMTAuMjQiCiAgIGRjOkZvcm1hdD0iaW1hZ2UvcG5nIgogICB0aWZmOk9yaWVudGF0aW9uPSIxIgogICB4bXA6Q3JlYXRvclRvb2w9IkdJTVAgMi4xMCI+CiAgIDx4bXBNTTpIaXN0b3J5PgogICAgPHJkZjpTZXE+CiAgICAgPHJkZjpsaQogICAgICBzdEV2dDphY3Rpb249InNhdmVkIgogICAgICBzdEV2dDpjaGFuZ2VkPSIvIgogICAgICBzdEV2dDppbnN0YW5jZUlEPSJ4bXAuaWlkOjQ4ODk0NGE2LTQwNmQtNDM2Ni05Y2RjLWI3OThlNTZiNTU5YyIKICAgICAgc3RFdnQ6c29mdHdhcmVBZ2VudD0iR2ltcCAyLjEwIChXaW5kb3dzKSIKICAgICAgc3RFdnQ6d2hlbj0iMjAyMS0xMS0yM1QxODo1NTozMCIvPgogICAgPC9yZGY6U2VxPgogICA8L3htcE1NOkhpc3Rvcnk+CiAgPC9yZGY6RGVzY3JpcHRpb24+CiA8L3JkZjpSREY+CjwveDp4bXBtZXRhPgogICAgICAgICAgICAgICAgICAgICAgICAgICAgICAgICAgICAgICAgICAgICAgICAgICAgICAgICAgICAgICAgICAgICAgICAgICAgICAgICAgICAgICAgICAgICAgICAgICAgCiAgICAgICAgICAgICAgICAgICAgICAgICAgICAgICAgICAgICAgICAgICAgICAgICAgICAgICAgICAgICAgICAgICAgICAgICAgICAgICAgICAgICAgICAgICAgICAgICAgICAKICAgICAgICAgICAgICAgICAgICAgICAgICAgICAgICAgICAgICAgICAgICAgICAgICAgICAgICAgICAgICAgICAgICAgICAgICAgICAgICAgICAgICAgICAgICAgICAgICAgIAogICAgICAgICAgICAgICAgICAgICAgICAgICAgICAgICAgICAgICAgICAgICAgICAgICAgICAgICAgICAgICAgICAgICAgICAgICAgICAgICAgICAgICAgICAgICAgICAgICAgCiAgICAgICAgICAgICAgICAgICAgICAgICAgICAgICAgICAgICAgICAgICAgICAgICAgICAgICAgICAgICAgICAgICAgICAgICAgICAgICAgICAgICAgICAgICAgICAgICAgICAKICAgICAgICAgICAgICAgICAgICAgICAgICAgICAgICAgICAgICAgICAgICAgICAgICAgICAgICAgICAgICAgICAgICAgICAgICAgICAgICAgICAgICAgICAgICAgICAgICAgIAogICAgICAgICAgICAgICAgICAgICAgICAgICAgICAgICAgICAgICAgICAgICAgICAgICAgICAgICAgICAgICAgICAgICAgICAgICAgICAgICAgICAgICAgICAgICAgICAgICAgCiAgICAgICAgICAgICAgICAgICAgICAgICAgICAgICAgICAgICAgICAgICAgICAgICAgICAgICAgICAgICAgICAgICAgICAgICAgICAgICAgICAgICAgICAgICAgICAgICAgICAKICAgICAgICAgICAgICAgICAgICAgICAgICAgICAgICAgICAgICAgICAgICAgICAgICAgICAgICAgICAgICAgICAgICAgICAgICAgICAgICAgICAgICAgICAgICAgICAgICAgIAogICAgICAgICAgICAgICAgICAgICAgICAgICAgICAgICAgICAgICAgICAgICAgICAgICAgICAgICAgICAgICAgICAgICAgICAgICAgICAgICAgICAgICAgICAgICAgICAgICAgCiAgICAgICAgICAgICAgICAgICAgICAgICAgICAgICAgICAgICAgICAgICAgICAgICAgICAgICAgICAgICAgICAgICAgICAgICAgICAgICAgICAgICAgICAgICAgICAgICAgICAKICAgICAgICAgICAgICAgICAgICAgICAgICAgICAgICAgICAgICAgICAgICAgICAgICAgICAgICAgICAgICAgICAgICAgICAgICAgICAgICAgICAgICAgICAgICAgICAgICAgIAogICAgICAgICAgICAgICAgICAgICAgICAgICAgICAgICAgICAgICAgICAgICAgICAgICAgICAgICAgICAgICAgICAgICAgICAgICAgICAgICAgICAgICAgICAgICAgICAgICAgCiAgICAgICAgICAgICAgICAgICAgICAgICAgICAgICAgICAgICAgICAgICAgICAgICAgICAgICAgICAgICAgICAgICAgICAgICAgICAgICAgICAgICAgICAgICAgICAgICAgICAKICAgICAgICAgICAgICAgICAgICAgICAgICAgICAgICAgICAgICAgICAgICAgICAgICAgICAgICAgICAgICAgICAgICAgICAgICAgICAgICAgICAgICAgICAgICAgICAgICAgIAogICAgICAgICAgICAgICAgICAgICAgICAgICAgICAgICAgICAgICAgICAgICAgICAgICAgICAgICAgICAgICAgICAgICAgICAgICAgICAgICAgICAgICAgICAgICAgICAgICAgCiAgICAgICAgICAgICAgICAgICAgICAgICAgICAgICAgICAgICAgICAgICAgICAgICAgICAgICAgICAgICAgICAgICAgICAgICAgICAgICAgICAgICAgICAgICAgICAgICAgICAKICAgICAgICAgICAgICAgICAgICAgICAgICAgICAgICAgICAgICAgICAgICAgICAgICAgICAgICAgICAgICAgICAgICAgICAgICAgICAgICAgICAgICAgICAgICAgICAgICAgIAogICAgICAgICAgICAgICAgICAgICAgICAgICAgICAgICAgICAgICAgICAgICAgICAgICAgICAgICAgICAgICAgICAgICAgICAgICAgICAgICAgICAgICAgICAgICAgICAgICAgCiAgICAgICAgICAgICAgICAgICAgICAgICAgICAgICAgICAgICAgICAgICAgICAgICAgICAgICAgICAgICAgICAgICAgICAgICAgICAgICAgICAgICAgICAgICAgICAgICAgICAKICAgICAgICAgICAgICAgICAgICAgICAgICAgCjw/eHBhY2tldCBlbmQ9InciPz66gDD8AAAABmJLR0QA/wD/AP+gvaeTAAAAB3RJTUUH5QsXETceR68qtgAAACF0RVh0Q3JlYXRpb24gVGltZQAyMDIxOjExOjIzIDE4OjU1OjMwE+PjXQAAL8hJREFUeF7tfQecVdW1/nfqPbdNH4YZZpjCUIy+iKLRZ2KJYoy+FF8Sn8/ybChoILZYYxdU1KioUVGRWIIFbLGi9CIqUkQRkDIwMk5h+ty5956+/mtfxkQCDkacgZn/fPwO9869+5S9v73W+ta5++wtoZfBjNVSojWJ5OrV+LKyEhn985A3ZH+k7/eDXlfXXoP2mg3U8Rafvf4GPQ2FZgO0lLeVvC2GTjP59RUlQmunTf1H2UTtln+87+mQO157DMwt66j6wwX0yaT7afEvTqTnCwejefWHKULCcNEfHuSydMSH5GPDsDJUDQ8jPCQdBtoRMWOpY9itVfRS/wPx7nHH08q776La9+dTom5TjyW1R7iY5mWf0qbXXsAXn66A/tr7sLxm5CpBeBk27EYPh69fifQhB0mb2BI3/vIX0EryEKYQTCUDYS8Gz7FgVVcj/6XHMfi350nUWkOvZBWif4bO+9swocNn8pMnHYWBhxyM6NFHYdhxv+gx7nefssRErJrsTz6lz2dMpQ8uHUdOvG6Z+HzD+0sQu/UeDJi7EBl5MvLLMmGWpSGZk8bfKrCSvigGNRpg4rhSho6kZPEnLagNaYhrMiwmyVYiqXJSer4U8dgVp4XQsn8W8IMM5OaHMXDhR0jcOgmbnnspVU7gnRsvpo0zplD9ivnkNW3dJ611r5IYT1RS08crqGLKs7ToggvotYwheOeHw1FzynmgSY+wlTSPEOVycjLZZSTRVBhAPCMKm1SktUShmTnsQD3EQ9urkaUbUDwFfrvKTBnwPB+G5SMAhzdAC2WmyjUlGyZaTHaGFUB6cwjhuIqEHkRLP4PPYyNzWEmqnIB56wOoOmUM5h98HF7N2g9zzz2Tvnh4MsWWfUTUVD+9o9heRbeS6NV9QZXvLPhHb14/ewHeHX4w6s4fhcTfHkducRA5xYNg71eCOnZx4MYVkApy0cavhhVE0E5DxA8jEQ7AkHRudAV6+/ZqmLLCf3vIVAKQ+CwSO0SSJd407gJcWc1IlUuLJa5u8zwkDAUKf2co/L3EsVNJ470V5JUMSZWjZMNINligbAiMkqHol58DacZ0VP7hQsw/5MeY+9Bdp6QKMjbNmk2xbZuJ7MbRHR91G7qMxGRLS1lz7bamqjfeoCV33UozBw+mF4sG4v0TjkfzqpUpIgfkDBdUgYr7IVxYypYTYTswEOYYxg4RSbtBFENaXgF/CgR8A44roUWzoEjt8KVmrgA3s9mUKoeojKTg3k/C548dkqG6cS6x3d0qYXE2Pl+MkMNkhZQoklorWpVWGCq7YpeQEDSGMlLl2r+onSVeDXKQ5tpwoyq8/Ci8snzuKJnoNyLlKGCvXUHvH38y3sovxWw9+9H3x19KW199iWo3buwW99slJCZqY00PZ+dvmjOwX+bqX/wCsWsnwEi2YVB+OYZwI1XUrU+Vy2Xy2BiQkBNwbR2kuez2WuF6gkK23C3bUuXS2NXFuBw4sgkLk5kTX2HCKMrulGPh9i+RbrB7tblR2SI9livpcohfZRBvPpMWcMRReV/E+VsFrsN7q1G2bhY+Elu06nNZVrlZ6alycSvGipevw3dhBZncpAnJy4YuzNOrQ//SYdvLtToYxup3YEEJgnnlaLthEj47+bdYVv4DvMx9pm5TZZeS2SUkhvpHs370m18ilzt+bn4+1LxM+Aa7LM9lN+khuK4iVU4a0F/SmTBDFTGMmznBraMpKZKEzcRat1uiEgo3q/yVyy5Q0tgy+DgSX7lMNpPJu7RvJyfm2RAOOJ2rpbCgscjj9xpnjg5HRQ+Osd092wmhR1nZemzN7Eo1dqMS8+naTL2iICetMFXOa2SL5tc2x07FV0+R+NyUkvRx3iL5hceLcpU1m1DPr82KCz9dR1pJNooLi5Genw1LjyBvUHGXKt0uc6c5Rx4Kt53dqq5DjoRYcLA0MWTI2Rzf5i/oKMUNcdbpMCtrmBTixtQR97i5mbAMthTaVpcqI/fPzrK52aWEwxdsMS38v9UODonIYCHT6pvby0XTUhWKcxlbHIThsA2IOClaMdfd7k5bE+18DCZflRGwTaimxXE2CUdp53N7cNNDqXLx2i9TJAZDEUR1lkbcwXyNOD7bcA4YjmBGzmxRLrHq49TxgqoO00kgJuto5Xo0mo0YNvp0UaRL0WUkZv7nwXxwhd0iNwMRu0o1ZWGqzApzzScdpbj3/3gENG5vlYOYpLFLddltMfHtmUHUb9nYUYqt75AD4UcjaFEsJNj6cuwAVBJakgUK540CAclBHp9TC3hMisWWG2fBwk6YDZC9NdRgMFWu3UymGj3G7jPk+Gylwt3a7AwspBewFQYCd4pyNueWgnY9QTDaHb52DY5jIlLFbvaow0SRFOiVd+GV5CInTojwseLsztvDfB1tNrJ+lTLWLkWXkZg2qBwNnJDrMksPdkFqu5si1YmoUNZVgyo3p+LEgMFlHJ/YdTHDPvdezeAez6RGjChaPl4liqTQf7/9oNa0cVogLEGGydLTDWjcyDofdbu3MoMqExJBjClK+gFE5HTuPKIjydA4Vmrq9nKCGIP/d1V2uRw33XAObC0ALx4A/YQ7VU70GlFuG1tsRHgEnYlhd287TsoaW20bOSMPFUVSqGVLtLlMlc7ZqOMh6vAZuDNqHCoCJWUdpboOXUZiKKtYyjj2WFB7AhQUcUmoS3ZfXD+HLWn94lmoXLOQqP6LVGU1jjkSU+C6Ptp0QoBdq7Z4Jdo/mEcNKxdQejScUpwyx7mAEWFVyVbBsS2EIBrXrEHTyvfJWb6aY1wIModITQ+lXDNHPqR5Rqqi9es+xtZVi8hau447Djtol8kNqGhhl0qeiSjHxSiLndolcyi2dDEFP/gEVl4aZzoOO2h2y6JzMY+i22hbvkTVJ4tp26vTqIw7axp3HIWvyWWl5ig+VJtYdIXRf8iILo2HAl16gg/vn0TxSy6FXFLEJLI65Ca3lWa0sJCx1zdzxW3Woh5ySgexaLAgJ1jgsxBQ+Xvi2KRaJuqq67jJdOQGM9lCFLQFuKWZFJUVjcvuM6A7qIy1QarhOMeiZEBGFijChsCKUhd5oc9dw9YQZhH0ZU0j4tw5iMXMsHy2WJ3tMcnKU+HOw+rTZwvLbJRR09rEpOnIzstAKM2AbbOHUMJ87SxuWDzpjoxt1bVgr82a1EP/oTkpS5csVsKBEByNy2+pR/jCURj+wP09m8QtKz+gzQcdDr+0mC2IY4fKAgcNHPwj3Cg+slkdcsdm9ZcLMuIcc7hVXM4FNY5RTGSI0xJPSyLSLu6ocONwKqLzdzaxVbIONVzOF7nhDF2Cxm42qSocH312lQ4TRLyvgiC1s+qNwg6wLXH8C7OsldhCYkqMz8k6tuOWna8kUteSRjpCfNw2clnhpsNitxhmi26XDFa7nC/y/sSKShGdzozz52zjEY1FF9PusUtmq3R9pnZrDUpfex5DfvW/PZtEgRnMXWZRPsJGEJatsO2Z7Hi4gblnO0YMuiki1N7E7iLKdpK/CT4rJN102YWGWb/FOFVhEcQqNbG5CsM3fIZ+g4d1eRt3WUz8Ctn7H4Agu7B2jjsuJ+gqS3Wdk70AW2a0hRUj96O9u/E1dbrtap9/bi7nMIrHqpdjtcH1DATY/bIgysgug5GXO6ajGboUXU5iyflnwdxSxQKClR/7VGL1ZnKyrkmEeBrndaxc9+7GqrnTbVf7/HNTUzcBWCNzou9w/PXZcG3OO9XfnIC0tOzHOpqhS9HlJIYPOjgV/HXXRTq7mhC70gCTqXOckS2fJT7t3U3xOt92tc/XNmGtIucUHVS1LWhMoNnajryRR25vgG5Al/trqvmS3s4vRVZJDtpYBCicb3GmwT2Ye6yvw9jjK9jDfijyhs5AnV9gOycSEqcWAdeByoKIDA31GxrwX58tRWj/4V3evgJdbolS/gBJGTwYLO3YBn2OhZwryiztKQAWk/yJ+HQvbhybO912tc/Xtlw1yJmqjwh3SEX8pNWehFQwCFTaf/ttpG5At/SUjyfdTg2Xjocs7knq7H588eMrMyjHOZUQzmhPwMfpUnRuqYorfgyz4KlhSBznzeptUM45B8c/+Ui3tK1At5yodfZMWnnaGLhDc9n0FZhCtXPOGNZb4InbN3uC3bi7PYb47asTuHx+SeO0whJJPoucijqU3n07yv/nlG4jca+ihZJdf2NxL8CxGiZ2vO1DH74dus3k33/5OXL+/jq7HhWO+DWdT+3ZcX6/G3W4j8NXWNZwPhnmlrS4Kt4BB2DkpZd1qyvttpPVznqLVh//S0S40gneUrqGK88pc0eJXUNSOv+eONnuDF29v8T10JI2FN2Dm/QQmnYvDjrjot5JovPlOnp3wP5IK8mDpUXgeDYCDif9cueXIIkha52AqHPh0dX7O6SwNbqI8HFaN9fgRx/PQfrwI7utXQW67WRusn76rJ//4pTQms8gR9mZsgXopoWEsf3X9h4LX+XQ4MJkg22tSuKXTeshpRf0ThIFltw2nrZcNx5a6rcMpAb09nS40FP1cRUduWf8L0Y+/XS3tmkfvidQsqUs7m1/5KCBaGTqwz70oQ996EMf+tCHPvShD33owz4Fqqqi6aeP6fyeWh/2XVBrFc0beQK9ooD+rmcTfbm+j8yeBDtZt2zByF/SYkWnWYX59E5uNi3K+wE1bdv+AE9vROe/s/QwULyW5p9+/oj47NfhDcxDnhJENKKi3a3B8kN/A49dbEfRXoVeQ6LZVEmLTx8D6ZXXYZQVwISHZvHQuGJAS1fhN27A4hNPh7vpnzNQ9Rb0ChK9trpl75z5ezT9/e/QyothJGVEFQ22Ip6uUqCRAcoJom3zCrz1m7PhbexdrrVHk9hIydHUXENv/Pq8EelvzUKorAgyW554kNVJiKePZfi+DZVC0OQMRPIzYaxdiZm/+z84W7t2MoTuRI8mMautfeScM89H9rxZkIsHQPUEaQlIJMMSP1bKOiRdh0MeFA/8uYLAwDSkbV6L+T86CVTTOyyyR5IohjpSe/30BaddeYrz5ptwC/MgKRIcxYFii5HmNjRF5vcezKTP1ulA1pzUpEQSDHhhnyPmNswp/HHHEXs2euSv0H5rJc0+bQwUdqHS0H7QEwkkkIWISvDEQ59sdaRFIMdNqHo7kloASY6PmTaQdNm9Bhy4cGA2JxFpDOOQLxcjNGBwj/1FvsdZotdUP/3Ns68AvbUASiETZ6mIGf2gai4r0nR4HAfF7Hu+3wwv6CApaXBlBbJsw6QWBKHAcXMhOxkIZQYQz5cx57BfIFbRc1VrjyOxvanlFPfV96BnpyHCLjPJlhdwVIS9NNh+oxiyhGS7w3GQY2NzPSRVgqnEkRvz2PbS4cgyZMlDUiZobgTZiou2qs1Ac7c9//K9o8eRmF4+WPrZlllQWnS0NMZBxHGOYkjITaxAWZHKHjQmK/ZFIwInjETLxi3IS+ho5JgZliTYcgCkmvzeQQM74bqaVvzqk3cQHfGjPnfanQiX7C8dtHUWTC8XCbcWcJJQXIldJVubLCFeuRaHTngAhz3/qrTfU0+ivrIS0Ey0BmwE/Tii8RgsX0rNcHHcinmI/vCnfSPU9hao6kt6m1/ey8uneeXlNKu4gF7nvz/887U7xLfKF16kWfz5ouIimlmaSe/n56XmCW//eFmvSvp7LOjLCnqOX+YWFNCbUGjNnfftkpj1U2akCH9zSBm9oIDiK9/vI3Bfgl+5if6mZ9LyO27rlJjNk6fQ87pOieV9BO6ToC+2fStiYlX75jze+zwaye72KZXFNM7rJj9MyVjDDiOyG6mt26+lD98B5NYt++jmG+gdjpHz/u8solhNn/X1NKy+7RZayFzOKi1MqdW5Y/5A5PQ9gt1jsGT8dbSAiVsyeDC9+YNimlVeQHP570UXX9RrrXGvJ/tUV0PLH378e2ng+bfdRNYNt8EvLoTtmEgzdWS7QKC8ANYDj+Dd80eRWCaho/h3gngC6vPnZ5BT2XvWmtojUKxh4qsnj6RnEaGFd4wnh757A8+ZeA29IiyudAgtHlJMc9iVLi4pp0UlRTSnrJje50T/Hf7+tbEX7FHjf/zMJHqVr/fVHx5GVNc9SybsDnvtdhO11S1bfPq1I7y3p8Jly5EqYohedxl+dNvN//Y1Lb/hKqobfw/y8vKhpBtoaXeAsAbfboUv9wM5zRBLYoRMDdXVNUgbfRZ+8tiUf/s8ax99jNb9/hJkDMqAVG3Di+bhuJo1e/2W3V5xp1ZzBS0494IR5htTIRVkIyJ7UIboiN12Mz69/IZ/q3cvHX8J1Y5/GNH8fDSkSXB9PzUpkOxICHpZCEkWXENOzcrfLiZ4Z9eKx2Zg/kXnUJy+vSWte/KvtG3MaGQVZkBmF02ZMhLuZsyNFBM17V3X2u0kes3V9NG4W2G/9CaotBhQctEkKUgq3NBDSlFz751YfOvtu20U266fvmjizUQ3PIK84hx46UrqJ6a4Z8LQZMTVJBKGDddJQPU8JpDQpiTh+DZ3mDzgkRexjK/j22DFXx+iL845H3rpUMR1MWt/BKRlIDOjH5LBdrx7+O/gbavea0R2K4nUWktvXn4N3GnPIK9sGHSVXZ6rIGgGkdEehG5zg5cNQMuNf8LiP13daaNsuHPqKTXX3AynKA/1IRl+3Ifhh+C4GuSEBIKRmuwdpEOxVGTHA4ggHVleCO22Da0oH4GH/o6ZZ4/q9DwV06ZSxbljESkrgCs1wXCz2E0r8NjSxZRgET63tnUd3vrlGaCq2r1CZLeRSFbDxDfHXIbgX6dBLSlFq9cGiyzoQW5810aLEeD2zoCiEELcYC2334c1z0/fZaOsnHgvbbnhamSWFyIRJOjsQoNaAE7MgSHr0DQDiuMiKMswVRmqEUQsqCPJPrWefWFI4s9DLlrKorCfegLTx56303nEs/d161bRe2ech9CwYlCEIHlh7nTcYQx2y56YY1GCr4Ug5QcR/fA9vPW70+Bu7n6x0y0kumbdsg9Ov/Rq+/nnIJcM5Mo7cNnliVWcfGpFzJAQ9gA14aVcn1LZjMy7bkTpqUcv7zhECrZVP33lxAlUc93lyC8oQl7CQpYrpt/0wI4SgZAOS3KRlGy2Ou44SbGIiQed2C7F3NwK6x1+73L6Ad9CpuegvLAAuQ9NxYpxoyjJLnr7mYAcSZqdN+xA6ajH/gJ3XSX8VqAtABgGgbw4rHACElu8yWQG5QgCg/NAqz7AktPGgGq79w5Rlyorcc80y2549L1fj4M182UEBw9GO9mpKcGSTGA4bsMxANPVEWYLatPb2U/WoPCOifjhpRcOkoIZ2xeV6sCq62+hLybcmlqXQqxNw9ENYv1EMatTUHQChcWRJwgUyzewkOHv2PMhKgZO8d+uwvtxJxGVFms9iSnk09jFmqmr8eCdcjpOmPHMTm2yfvIUqrlwDMzSflAiOoIxoFl1EGLLNLg+JocEV2X1K5uI1TRAG3IIjpozHXpOYbco1y49CcUbRy8+b9Sj5guvQikuSc37rWtKqqEDvmhQpBY6CVqikX3Et21FZMJ4DLnqfGQp+TtcW+uaDVRfuYYbzYStsuIkIzUbVdgMs2vmA8gqWzFbCbtPMfsvLHab/LcZUFNLCYmZo0yJVSufR4wCaFE9BHgfI8TdwbTYLbK7tU1kFZehYP+dFyRZNfUJ+uK8UUgvKEB7mga+BATFYlVekkNAGJbJHVK3YPBxE7VxRIcdjCNen8KudkiXE9llJxAuZdbYG6C8NAV6eQmrQtHXfU6TZXgqW6LNrlMsVskOT0IDmirqkXfHjTji2lt3uqYGsibmSIHU0j97E2sef4IaLhgFrTgfth6GyvWxOc6KIVi6qsA3Ob4HheiJo6E1CbVfGf7r80+6nMQui4mbPv0I1S/NBJUVwuBeKlxamAmUTQnNrCDFIiAKOzJdS6C+Iomym27bJYEC+wKBAj+4YJTUb+ok1FQ2wmDh1KIriMqiY7JwsnQWWAYctmrZdpGVk4PE55/g3Rde6fL42GUkDjrmiOOPenkS5IoqNLALFWPQ4hw7WtMCyPDBrkzkbxZqPm/EwAmXYv/rOOj0AAw995xBQ5+4Cy1bGhBui6NVD8DyGtgS40iG2bMEwqjJDMKpqMZ+k+/Fz079757rTr9C5UtP09LfnsWiJg/5lI6EFILqtAEawd6wGek33orht97Y5dfxfaAlmSzLCAZTYmvt1Aep+oLrgeI0sJ6Cyt7GoDDqWDz5FRtQNOV+7H/2Gcdr2vY1Fns8PntpWup3vY+K82hF+RCaW1hGb/DfS++6udtzqu8T1U89Rm9yPRaWl9DioiKaN2wozRODtR5/kHVUS++bGrvquZfpea7wrPJcmsmZ23t3TuzRBH41f/mGqY/Su1yvuUPz6SV+XfHwQz26XrvFxhdfpGcU0PwJf+pVFf3oiXtoGhP48X13/6NeLUS9cpL6FD6fv6RX9tS1c3pnvfrQhz70oQ996JWg+rpl1Yv6nmHoSrSuXkVUu6lr2rjNbhz92qjR9BRzGZu3oI/ILoC5+mN6gdt35k+OJmr4nqdnoXjDxDn/dy69wfnd3IL81EDc5oXv9RH5PaJpzRJ6HUFaUFRCsxWFFh5+NNlN3356lt3es1x02ihqe+4J5BYXQ0UCjdBAldU4aOl7yP3Rj7/1Pc/Nr7xCduM2KAGCwv/E0uftfPqIurdX9+4cX1+hZler2RB/73o2DE2F356EEslE+emnSyLZz5CkHX7U3hVaP/2I5gw/FLn9skGBLDiyA6dmK8IH/BhHvDkVSr/y3bbxNxbwt9U2zbnslkxt2iOIDylDIMkXGNBBmgPXdJDY3IT/XPQ28o78WacnYd8w8bMb7r1644QHkC0WAeEtxJ8nFCDpITWMoidDdEgJ3CG5PiR+5IYO6cIzcewjd48JSp0vDL159TraeMD+0HOz0Jjjo39rkPcOoT6ShF9djeigg3DUqmXfjUQvUT/9nfMvPyX87AtIFgcR1KJwEgY0I4qgyfZjuIh5Phoqa3D0oneZyGO+8URr77iYtlw7GVExtF7xEZI1NHpxZEkBxGQfqr/ba9ynIckukrKOqMVkSi4CZCFZ2QB/3Bk44s83QTdKdlnBpk8+ovd+eDhCBVkIaQZ8MaCE28IkG4oGyL6DZEsbvNJDceI7T0LKK/7Ghtrl74nzL7z2FOnZZ+CX5CFNzoDEZuNFfbhyE5ojEiwx3EGzES3PwdJjjkPT0qW79N9L7ryd1jKB0pABaAkjtZ6w53mpdfZTwyk6XzCtR0D32RZtjwONB4ndrRg/S+X9YP3lebx71e3Y1bMfsc/X0zwmMJqXATcjjIgThMkU2YEAIoYBSfGgcBuF++XDW/MB5v/XKNDWb57mcwcSk8mWsrlnnEPW01NgFBek5oSBaYjZJrnBPTB3MKwYZDKhJ3iHjdUYcP2VyDhw4A6TwDhmbdPqSfdR/dXjcUB2PuCKYYls4ZqCNuFwuMclLZOPwz6oh4O4U2rsXcJGEHGNOym3aMAB+hX0h/fAC3jl2qtniYdwOoqnEClLX37AE5PQWtcIo8XGViMG0tlIvEbReBxnOTZyeymOg2BhBNayhXjjv8+G37TrUXT/IDFh10//9JKrNnnTnkRGeTFkMfBWT4cbkNBmmjD4woJqgM1cQkvUhskXUHjNDTj4lolSk5/+Px2HST01tPyRqZmbL70CBQU5SLCXiCgKApIMqz2ONCGMSEpNCuTzZzJfVk/eiNtJJj/lYYKWjJjGnkrz2SItFBRmQH3wGcy/9I+bvm6RkpZ3yNBRf5CGTp6MeF01JF2BKTcjnUVSgkWS5zXDlXRYxG2lakgfOgDhlUsw72S2yKadH1dP+VmPCVx6wZWntD71JJQhhRBDgDyL4LOrSIRkJkGC2sbBVqzEzSqsvrIKhTdchkNuuH0nP7387nto0zVXcQzMQFhmCePLsFUJksUKztHgsvHZXE7nyntceTH6rCfDY5UNrkuIG9z0La6fB+JN4g7KEiA1DVlyYxXSxo3FIX95YKf22vD4/fTlBZfDLMzhwhoUT+ImVplAFwqlgax2RLnDO5KP2JZKZBx6NA5762kouf+MkTIlG0fPP+fyU1wmUC0thsMBOs4aSQ2GoLLbVB2PSbY5hElol0y0bahA8ZWX70Sg7TaO/nzSXRS77lrklHJHcCJc3uNA7cF3CGEtjCRbZYL7QdTQU+QZYsBoD4fB/tMmh+spngHZTqamhjhOig6qwPZtaIOLsPUvD2DpxX8k+toAZYHBF1wiDZg8FV5VHL7LOpc9HrkqwjYrVakJulj5lY/jqexey4uQWLEY8047H7HqNf+wSGnBQw9Tw8V/RFpRPwSZLCUQQYvrsBLlvbwE2HOiTU3jHsW9TG1BIDIQh7/3NqRwAedCSc6FghW1vt9kzn0tc8vIk+ENK4Bma9A9tjqOqaoS4j0d2J6LhOwhXUznnPCQNLjHieVoWeD0ZEgSX78vltX1WPjJ7NokVvDcqdnXSrqGKNfRcmzURHQo6+sw6P77ccAlo3eyyKW/Oo30ubPRlM/WmAyxy+XYygo17usIsmWLgdAZ3DGSEQ0t6ysRuWgspzHbLVs+6tzfLi847QyEttRA023EpLZU3NKTPrsDTsqFEGE/nyTOER0DLR+vxsJb7k6dWBAoXvvLclbJyJOl/veOR3NFNZPFfl3hyMwRN84XEvAUZLKETuNe6vsENywEgBiJvVNdehwSXD+V6+mq7EbFI3qswBOyxC5VhAsJjb4KU7eQsX4r8q66bJcErp50B1W9+RyS2TJa2ZotzeTOwe6TO4UXciBxDFL5WE1hF876CmT/9mT89JarO/buiIkCS8ZeSNbkp+AVZCLIVmSypbB+ZHdhIsh5UDtflM49KqnYyKyogfOnP+LI2+/Z6YJWPvggbbr0WhQUZXD+tN1dJnUZmZaKEMfZ9hC7V84xk5aHHGJpbYgI+c3YxU2SHbCbJX/3GLs7vydxx1dYrXMbheU0eK0ueykmjju/xmTKfgKJzc0oufxi7Hf3n3e62oVP/oUi54xDS1kpZwIaAiyKEloCEnMgCmuSATJZvYYJ8YpGZPzsVzjimcfulHKy/jEWd4eDLhg7jvDQXyAPyWd5G+RgylbDjsJl69EC7GqdMPv/BHSObda6auSOvRI/vPfqO5VAzg6Dez9/6C7aPPZ6pJcUcmphop57qRQKg0Mqy28ZTZrLbjXAAod7LseAzrCnCzvvKXZ3ftmNQxK3y7hTshNka4yzhnDEzNWIskfbWlmD3IvG4LBHHtzpQJ/edy/VXn05lPzClKgB6xGfyRf6Q+GkX+L0zvWTMCOs8Nc3gk76OY567vHlUnreIR2HSGGnAy/+w2iyH3wMWlEepwFiKXXuHSI4s9W0OEkEOUH0OdWwfT5p5WakX3IZDr3lTzOkaO4/0wwxEdCjTzy66g83YWjRQHYLJkRxsRy7wkFbY0mdpDZoyTZ4embHXrvGnq6+vafY3fkDErcRK0qTg5issW4QapU7rqpyirCZ1eTFV+NHd195p/QvHf2Th/5C1WPHIVSSm7I2j/Nw4mOQEElSEiG5H2zuDIaeRAN7voz/+R2OnPrIDCnyz3b+CrtsgTkXjyH5gUehFpdxAc6BRBxjQjnbgMWpAtglej7HTBY+LZUyjlo9C1kHDN/pWEsf/DNtufRq5JXmQHdtJlfmvCqdgzQTaXCO6MS5lTpXqPu6JXocvzQOFUK4BbiNOKpxTNPRtnEbgn/8PY654zroev8dDhKr3ERvFR+IfplsbekDYcQ5pYgmISsJWF4WH8NmAxLPV6pIbKmFdtQxOPblJ5dLaTta4Ff4xiucf9Fl5D02mdOOzJQbtMLc08ww75FEVDwMxAH9880t+PnSV9F/xMhvPM7q+++m2ksmQC6PslBm4h2de5oBOXWnQzxu1lHwGyCEUGeQd7NO/55id+cXSb4UDiDJytGLOsiKcR0rqkBX/AFH/nnSN15c68ZPaVb5f0AvKkCIvZTKuUVQK061T0KqZ0FTA3tNO4I//y2OfOHhnVzo1/GNJ0nGG0d/dMnVj9KUKYgPLkCOa7FS1dljB6GZzYjVtOHwJXORdcTRnbaiGAm99KGHN9WMuxkZ3MNEai92MHjjEMCtwFsn2B1FXWuHuz+/SJDE43nCoQTZSbWIz668DIfcev2YjGDnv2IkPl1OC/5jBEJFuWhniZvmcI7J7VvFVpm9tgrKib/BkX97fIyU3flxdneNmHfWBeQ+/TjCRWyRahCtEgsT7mk/WzILOUccv9v9v8LG114n12IRICpssqDhhF/IZhI3GzuBz267M8gsw7sSuzu/oynQOeAHLPYqaEMiqGC/E4+dIYV2jl27glWxiuaUHQi5OD+lFVQkkdzQiMhPTsbh7zwxRg13TuC3xoLRY2kW66WZZRF6S1Eo8cHCrjaA/6+Q2PQpzYZO8wry6DXu4wv+60TyY7VNHV9/PzATdcuWjBtHTyKTEh/O/7cIFEsBdbztQyeo3PghPasU0bzfnErU1EVLIDlWDTWv/qjPArsQrRwjrVjvXB6wD33oQx/60Ideic2zZ5KYpK/jz16DzQvfoF75iPe/YtOzf6W/IY8+uPb6XkXiqkkP0wxk06K7xvduZbl62uOcyOq0tCifXuaE9tMrrqeWfxkF1hOx7qkpNI/rM2OwTm/qOi25/57eSeSqV6bRuwjSwuIiWjg4n+aXF9OHUOj9a3dc06knwabG0QuefoLeUbhepfvR4uJiWsQddCHX66N7JnVrvb71vc/vik+ee4raTjsPTnF+avSXqihIygkQAvCrapB5xVU49PY7uvw6vk84VLds7TNvj2g8axSkojzoiow4xKS53KCKB2djFYyH/oyjx17RLfXq0rvHa199imrOGwu/qBSGLKZ1VpGgKOCnIxDQEBiYh7o778GH19/aoyxy5dSXR9SddQ6c8gIomoEmzYKk+uJXQMhius/yPGDsFVj+wF3dUq8uI/GL116llSdfhfQBUe6pYmJKDQbSUs8YmGLQRzIA1ZQRKS9E24QbsfiGq8nZw+UOugPLH3+MWkaNQ4g9i+xwnWwVYVcDuTYypBwElADCko2s4iJUXnwVXn/uuS4nsstILPzpYcg7/9eIbaxhN2MjISXg2WLsfwKZcgC63A5LDQMmgUqz4Yy/E6sm3D1r+947opFon7iJ/uGUR2ibGFJRWsghIQwKyGiTXGiqBlU1YDsyfFlHIhBEddVWZP70JBx7wvF3duzeZehyn730jHMpMe2vaBqchzzPh2tnwAuZ8MXDBkyiYUtwdZOvhK1z/TZo1/8JP5kwfqfrSny6mqpXrYIbJGiRAJx4EulyEI67Zx3dUyyYfIwMPYpkSxIZwwYj67BDdzr/e9Mmk3vGWNjsKsVINMNX0KKZCHNs91wLqm1A1QltugRpfQWMn5yEY157FFJWUZe3cbcE3oVnnE3KtKdglhUgyFYYdxQoisTvbbR4DiRfR5R7sCWJx8K2od+1l+DQCRN3uDbHYzFx670jqic8hKCXhMf/LP58d0OPd0excEUGi5IvWXD1+/2ZOHrCdZDTB+1w7jVTJlPt+RdDKs3hkizIyOXrMRENROF7YnbjIGC1wTQshDY0Qhr5a/xkBhOYuePYmq5Ct5xE4L3R51PyiWnQ8vpB0tj9KECz76JAjBaQxVIHzdzDdWYrDGVbA4xrz8fhV16XGt1VQx4FIQ8ST96KhS43X3sLSgvz0R6UmUgLspjm0HQRFk9dOQnoaig1q7FmOVA1fu9b3NAukqSyQjZSc4G3oR1Rrr0MHV9urkTxJZfj0Pvv3ak91j56M20dczPUsmJIsgOFO2CrFECmZ0FhdyqethCWGBeriVc2I3Di8Ths2qMwsrpn6miBbjuR09Iw8r0rb5zlPf4wAsW5UOUM2AFCMslqLqCnllMwJULED6NBSyCysRqFz7+Mwf/7652u8eP7J9LGS25EDrtojyV9IAm0s8w3vBBTIiaibofPxJpirQ0mOSCmeWbvHdckZHmEBAsSSY+zRTvwK7jsFaPx0z/fv9N56pYsp+VHHA2rtAj91Va02g7bYSg1JEM8KJNgPcpaG0kWa15FM+j4Y/Gz5x6GlPPND4R2Bbo0xfg6tIyc2cc8/rCE0WejvbIeCb0FShv3bBYBusWNrQWQZokJ3jm+bNyKyH237JJAgeGXXCMNuu8mmBuqETKFawX6eVEkNDGds8c0RlKDcLlrQJdkRPn4MlthpumzdQI5ThvICyNRUQ/tkrN3SaBA3hEjpEFPPwps3oKE6SHEHgTc4QyRRrAiDTvcOd02JrAa/nHH4MgXn+h2AgW6jcSvcNxjT0nGmLNBn9cjqXuQ22MI2BbCcRNbIzaSNVuQc/dNOPSy6zttjOEXjp7Rb+J1aN7aBsuIshUnOLY5SEQV/t9D1E7nFk5AIwMuN7bGrrud45jNcdhiFxuprELkistwxP2TOz3P0LPOkMqffxR2dR1sTUagPQmDWMyoNlqDJuStJpSRJ+KEl5+eEUrvnhj4r9grJxVYMupCanzicUSK0xAJhFHveohU1KDffRMx7LJrvvV1rb3nXtryxyuhlfZLPfTpBzjumQHOSiXorBQTNhPIXTXJokk8Cy8Gr1FFFTLHXoID7r92RkD6dqPS1j/+MFVe8AckflCI/GYPMVVCS8NW5P7wBBw+cyr0zAF7rS33KpaceRbNUUDvlmfSYm7blRPu/E75wspbbkktz/5eUS7NLy2mueXFNKdsMM0rKaYlxfvR4qJiWlRYQu93zBOz6KKLSDxq0LH7t8b6vz1Nr/J1iuX8xOi/BYeMJLd22/c7Kq0nYs6p59DfuWE2je98efXd4cPbJtAr3LCzmcQFJSX0dlkuLRw8jGaV59HcwnJaUlBMb+lBevfiS0k8Gd2x27+NTU8+QdMVnd497gSimvo9S1J7Ez588dnvpTE+uetethSd5hWn0/zyMlpUVE7vlhXQ+0zoTO4oy3//B6LvsNDm12cRFj/8fvL3F/vI60qsG397apL4xYPZIgeX0vxidq9soR9e/Me+ht/XUUNmiiQxg9XH995Hc5i4mUM5Noo56a4ZR2LVuFTBPvQMOE7DyBV3TqBnmdNFo88l06lb1vFVH3oaNj4zuc+F9iTEar/d4pPm5g19xO6LoM8/Ta1L8dl1EzolaMVfH6EXWL3Wf7C4j8h9CYl1K1Kj6Obnigl1FZr1p6vIc3YWMSumPsZphkKLCwq2z6C8YE4fkfsCmurrp4t0YlZ5Ib1ZXkyzy7JpBRO16pYdx7Z88NxkWsKfLygup0WFrFiLszkNCVLdst6xIEm33wD/vtC0bil9kDvwlGBeLlTLSP3CbilBNJbno/amq7Du+ltITBa4/qnHKH7aWMRLI/B1C7Kkw/BVGGWZ+OCQI9D04aweT2SPvGnbumEpzR98AkKZMuS8IGSbyaEM+IqdmhACTKlVsQHRU/8b7S/MhFHYH7r48d1zYSqEqC3BDMiQEly2qg0HfPwG8od/88S7+zp63IUnNn9Or5cPR26hmPqHmZE9hNUgzHgrpEA2XEWsL6xD9uOQaxuQEDNkJaOAmwApCmRDhp/QYIUcZEGD6TZi01YHpy5bBOOgg3okkT3OnYZKh0rB034Dr7IF0aCDoB9GQlYha0G45ECSNEi+mPYohMTAAs782eICErRoBLbOB3AcJHUNIUeHLzUivqUZeYcdDKV/55Mi7cvosS5k9m9PJePVF5EYlL99wC6TSOwqfcuHztaZYCuLQoWju/A8hSnVkKQWJleCmlDQ1j8NytrPoB84Eke9PRVyzsAe2xY9Vtgc97eHjm87+XeQ1lchElJgux4kz4ehBpg6HyF+bysmWx5zo/hoYStVWNSYvoZERgKBtRVQBhyIo9+efmdPJlCgR1+8GDG+5IyzZ/kvz4JfMhCaakGRA/BsGS5a4agayFERlliAEpMaCCFoE9q3bkLwxz/G4a+9fLwY+9NxuB6LHk2igJeoW/bGGeNGRF6ZAZQWggIadA5+jukhqHlikBtscIxUPPiqDH19JWI/PQknPTcVUv+9Mybm+0aPdadfQQnlHXLSs4/cqZ15OrC5BkHLgSXHEQELGEXMzwSohspih6lkArWfnoCTnp/SawgU6DUVofb66XMvGHeK+9wL0IZksyuNQE8GEbI4N0xLwNtQDfXYn+PwF/8KPT2/19S714FaGyYuPON3NE9X6PWSzNR90rmDC+jNYJDmHHc0+XUVffdLewLEAi0LTz2TFilBmn9gHr2ngOYcfTxZTd99cFQf9gKopaXs41PPoiXQafb+h5Jb32eBPRJOUxXNu+EmEoR2fNRLAfw/GK+YY/7zGvUAAAAASUVORK5CYII=" parent="1" vertex="1">
                    <mxGeometry x="27.33" y="40" width="52.74" height="70" as="geometry"/>
                </mxCell>
                <mxCell id="2" value="" style="rounded=0;whiteSpace=wrap;html=1;fontSize=20;" vertex="1" parent="1">
                    <mxGeometry x="345" y="475" width="120" height="205" as="geometry"/>
                </mxCell>
                <mxCell id="3" value="" style="rounded=0;whiteSpace=wrap;html=1;fontSize=20;" vertex="1" parent="1">
                    <mxGeometry x="345" y="475" width="120" height="75" as="geometry"/>
                </mxCell>
                <mxCell id="4" value="" style="endArrow=none;html=1;rounded=0;fontSize=20;entryX=0;entryY=0;entryDx=0;entryDy=0;exitX=1;exitY=1;exitDx=0;exitDy=0;" edge="1" parent="1" source="3" target="3">
                    <mxGeometry width="50" height="50" relative="1" as="geometry">
                        <mxPoint x="945" y="765" as="sourcePoint"/>
                        <mxPoint x="995" y="715" as="targetPoint"/>
                    </mxGeometry>
                </mxCell>
                <mxCell id="5" value="" style="endArrow=none;html=1;rounded=0;fontSize=20;entryX=0;entryY=1;entryDx=0;entryDy=0;exitX=1;exitY=0;exitDx=0;exitDy=0;" edge="1" parent="1" source="3" target="3">
                    <mxGeometry width="50" height="50" relative="1" as="geometry">
                        <mxPoint x="705" y="635" as="sourcePoint"/>
                        <mxPoint x="585" y="575" as="targetPoint"/>
                    </mxGeometry>
                </mxCell>
                <mxCell id="6" value="Titol" style="text;html=1;strokeColor=none;fillColor=none;align=center;verticalAlign=middle;whiteSpace=wrap;rounded=0;fontSize=20;" vertex="1" parent="1">
                    <mxGeometry x="345" y="570" width="60" height="30" as="geometry"/>
                </mxCell>
                <mxCell id="7" value="Cos" style="text;html=1;strokeColor=none;fillColor=none;align=center;verticalAlign=middle;whiteSpace=wrap;rounded=0;fontSize=18;" vertex="1" parent="1">
                    <mxGeometry x="345" y="600" width="60" height="30" as="geometry"/>
                </mxCell>
                <mxCell id="8" value="data" style="text;html=1;strokeColor=none;fillColor=none;align=center;verticalAlign=middle;whiteSpace=wrap;rounded=0;fontSize=18;" vertex="1" parent="1">
                    <mxGeometry x="405" y="550" width="60" height="30" as="geometry"/>
                </mxCell>
                <mxCell id="9" value="&lt;font style=&quot;font-size: 30px&quot;&gt;Tramits&lt;/font&gt;" style="text;html=1;strokeColor=none;fillColor=none;align=center;verticalAlign=middle;whiteSpace=wrap;rounded=0;fontSize=20;" vertex="1" parent="1">
                    <mxGeometry x="370" y="425" width="70" height="30" as="geometry"/>
                </mxCell>
                <mxCell id="10" value="" style="rounded=1;whiteSpace=wrap;html=1;" vertex="1" parent="1">
                    <mxGeometry x="345" y="630" width="120" height="40" as="geometry"/>
                </mxCell>
                <mxCell id="11" value="&lt;font style=&quot;font-size: 15px&quot;&gt;Més Informació&lt;/font&gt;" style="text;html=1;strokeColor=none;fillColor=none;align=center;verticalAlign=middle;whiteSpace=wrap;rounded=0;fontSize=20;" vertex="1" parent="1">
                    <mxGeometry x="340" y="635" width="130" height="30" as="geometry"/>
                </mxCell>
                <mxCell id="12" value="" style="rounded=0;whiteSpace=wrap;html=1;fontSize=20;" vertex="1" parent="1">
                    <mxGeometry x="200" y="475" width="120" height="205" as="geometry"/>
                </mxCell>
                <mxCell id="13" value="" style="rounded=0;whiteSpace=wrap;html=1;fontSize=20;" vertex="1" parent="1">
                    <mxGeometry x="200" y="475" width="120" height="75" as="geometry"/>
                </mxCell>
                <mxCell id="14" value="" style="endArrow=none;html=1;rounded=0;fontSize=20;entryX=0;entryY=0;entryDx=0;entryDy=0;exitX=1;exitY=1;exitDx=0;exitDy=0;" edge="1" parent="1" source="13" target="13">
                    <mxGeometry width="50" height="50" relative="1" as="geometry">
                        <mxPoint x="800" y="765" as="sourcePoint"/>
                        <mxPoint x="850" y="715" as="targetPoint"/>
                    </mxGeometry>
                </mxCell>
                <mxCell id="15" value="" style="endArrow=none;html=1;rounded=0;fontSize=20;entryX=0;entryY=1;entryDx=0;entryDy=0;exitX=1;exitY=0;exitDx=0;exitDy=0;" edge="1" parent="1" source="13" target="13">
                    <mxGeometry width="50" height="50" relative="1" as="geometry">
                        <mxPoint x="560" y="635" as="sourcePoint"/>
                        <mxPoint x="440" y="575" as="targetPoint"/>
                    </mxGeometry>
                </mxCell>
                <mxCell id="16" value="Titol" style="text;html=1;strokeColor=none;fillColor=none;align=center;verticalAlign=middle;whiteSpace=wrap;rounded=0;fontSize=20;" vertex="1" parent="1">
                    <mxGeometry x="200" y="570" width="60" height="30" as="geometry"/>
                </mxCell>
                <mxCell id="17" value="Cos" style="text;html=1;strokeColor=none;fillColor=none;align=center;verticalAlign=middle;whiteSpace=wrap;rounded=0;fontSize=18;" vertex="1" parent="1">
                    <mxGeometry x="200" y="600" width="60" height="30" as="geometry"/>
                </mxCell>
                <mxCell id="18" value="data" style="text;html=1;strokeColor=none;fillColor=none;align=center;verticalAlign=middle;whiteSpace=wrap;rounded=0;fontSize=18;" vertex="1" parent="1">
                    <mxGeometry x="260" y="550" width="60" height="30" as="geometry"/>
                </mxCell>
                <mxCell id="19" value="" style="rounded=1;whiteSpace=wrap;html=1;" vertex="1" parent="1">
                    <mxGeometry x="200" y="630" width="120" height="40" as="geometry"/>
                </mxCell>
                <mxCell id="20" value="&lt;font style=&quot;font-size: 15px&quot;&gt;Més Informació&lt;/font&gt;" style="text;html=1;strokeColor=none;fillColor=none;align=center;verticalAlign=middle;whiteSpace=wrap;rounded=0;fontSize=20;" vertex="1" parent="1">
                    <mxGeometry x="195" y="635" width="130" height="30" as="geometry"/>
                </mxCell>
                <mxCell id="21" value="" style="rounded=0;whiteSpace=wrap;html=1;fontSize=20;" vertex="1" parent="1">
                    <mxGeometry x="490" y="475" width="120" height="205" as="geometry"/>
                </mxCell>
                <mxCell id="22" value="" style="rounded=0;whiteSpace=wrap;html=1;fontSize=20;" vertex="1" parent="1">
                    <mxGeometry x="490" y="475" width="120" height="75" as="geometry"/>
                </mxCell>
                <mxCell id="23" value="" style="endArrow=none;html=1;rounded=0;fontSize=20;entryX=0;entryY=0;entryDx=0;entryDy=0;exitX=1;exitY=1;exitDx=0;exitDy=0;" edge="1" parent="1" source="22" target="22">
                    <mxGeometry width="50" height="50" relative="1" as="geometry">
                        <mxPoint x="1090" y="765" as="sourcePoint"/>
                        <mxPoint x="1140" y="715" as="targetPoint"/>
                    </mxGeometry>
                </mxCell>
                <mxCell id="24" value="" style="endArrow=none;html=1;rounded=0;fontSize=20;entryX=0;entryY=1;entryDx=0;entryDy=0;exitX=1;exitY=0;exitDx=0;exitDy=0;" edge="1" parent="1" source="22" target="22">
                    <mxGeometry width="50" height="50" relative="1" as="geometry">
                        <mxPoint x="850" y="635" as="sourcePoint"/>
                        <mxPoint x="730" y="575" as="targetPoint"/>
                    </mxGeometry>
                </mxCell>
                <mxCell id="25" value="Titol" style="text;html=1;strokeColor=none;fillColor=none;align=center;verticalAlign=middle;whiteSpace=wrap;rounded=0;fontSize=20;" vertex="1" parent="1">
                    <mxGeometry x="490" y="570" width="60" height="30" as="geometry"/>
                </mxCell>
                <mxCell id="26" value="Cos" style="text;html=1;strokeColor=none;fillColor=none;align=center;verticalAlign=middle;whiteSpace=wrap;rounded=0;fontSize=18;" vertex="1" parent="1">
                    <mxGeometry x="490" y="600" width="60" height="30" as="geometry"/>
                </mxCell>
                <mxCell id="27" value="data" style="text;html=1;strokeColor=none;fillColor=none;align=center;verticalAlign=middle;whiteSpace=wrap;rounded=0;fontSize=18;" vertex="1" parent="1">
                    <mxGeometry x="550" y="550" width="60" height="30" as="geometry"/>
                </mxCell>
                <mxCell id="28" value="" style="rounded=1;whiteSpace=wrap;html=1;" vertex="1" parent="1">
                    <mxGeometry x="490" y="630" width="120" height="40" as="geometry"/>
                </mxCell>
                <mxCell id="29" value="&lt;font style=&quot;font-size: 15px&quot;&gt;Més Informació&lt;/font&gt;" style="text;html=1;strokeColor=none;fillColor=none;align=center;verticalAlign=middle;whiteSpace=wrap;rounded=0;fontSize=20;" vertex="1" parent="1">
                    <mxGeometry x="485" y="635" width="130" height="30" as="geometry"/>
                </mxCell>
                <mxCell id="30" value="" style="rounded=0;whiteSpace=wrap;html=1;fontSize=20;" vertex="1" parent="1">
                    <mxGeometry x="630" y="475" width="120" height="205" as="geometry"/>
                </mxCell>
                <mxCell id="31" value="" style="rounded=0;whiteSpace=wrap;html=1;fontSize=20;" vertex="1" parent="1">
                    <mxGeometry x="630" y="475" width="120" height="75" as="geometry"/>
                </mxCell>
                <mxCell id="32" value="" style="endArrow=none;html=1;rounded=0;fontSize=20;entryX=0;entryY=0;entryDx=0;entryDy=0;exitX=1;exitY=1;exitDx=0;exitDy=0;" edge="1" parent="1" source="31" target="31">
                    <mxGeometry width="50" height="50" relative="1" as="geometry">
                        <mxPoint x="1230" y="765" as="sourcePoint"/>
                        <mxPoint x="1280" y="715" as="targetPoint"/>
                    </mxGeometry>
                </mxCell>
                <mxCell id="33" value="" style="endArrow=none;html=1;rounded=0;fontSize=20;entryX=0;entryY=1;entryDx=0;entryDy=0;exitX=1;exitY=0;exitDx=0;exitDy=0;" edge="1" parent="1" source="31" target="31">
                    <mxGeometry width="50" height="50" relative="1" as="geometry">
                        <mxPoint x="990" y="635" as="sourcePoint"/>
                        <mxPoint x="870" y="575" as="targetPoint"/>
                    </mxGeometry>
                </mxCell>
                <mxCell id="34" value="Titol" style="text;html=1;strokeColor=none;fillColor=none;align=center;verticalAlign=middle;whiteSpace=wrap;rounded=0;fontSize=20;" vertex="1" parent="1">
                    <mxGeometry x="630" y="570" width="60" height="30" as="geometry"/>
                </mxCell>
                <mxCell id="35" value="Cos" style="text;html=1;strokeColor=none;fillColor=none;align=center;verticalAlign=middle;whiteSpace=wrap;rounded=0;fontSize=18;" vertex="1" parent="1">
                    <mxGeometry x="630" y="600" width="60" height="30" as="geometry"/>
                </mxCell>
                <mxCell id="36" value="data" style="text;html=1;strokeColor=none;fillColor=none;align=center;verticalAlign=middle;whiteSpace=wrap;rounded=0;fontSize=18;" vertex="1" parent="1">
                    <mxGeometry x="690" y="550" width="60" height="30" as="geometry"/>
                </mxCell>
                <mxCell id="37" value="" style="rounded=1;whiteSpace=wrap;html=1;" vertex="1" parent="1">
                    <mxGeometry x="630" y="630" width="120" height="40" as="geometry"/>
                </mxCell>
                <mxCell id="38" value="&lt;font style=&quot;font-size: 15px&quot;&gt;Més Informació&lt;/font&gt;" style="text;html=1;strokeColor=none;fillColor=none;align=center;verticalAlign=middle;whiteSpace=wrap;rounded=0;fontSize=20;" vertex="1" parent="1">
                    <mxGeometry x="625" y="635" width="130" height="30" as="geometry"/>
                </mxCell>
                <mxCell id="39" value="" style="rounded=0;whiteSpace=wrap;html=1;fontSize=20;" vertex="1" parent="1">
                    <mxGeometry x="60" y="475" width="120" height="205" as="geometry"/>
                </mxCell>
                <mxCell id="40" value="" style="rounded=0;whiteSpace=wrap;html=1;fontSize=20;" vertex="1" parent="1">
                    <mxGeometry x="60" y="475" width="120" height="75" as="geometry"/>
                </mxCell>
                <mxCell id="41" value="" style="endArrow=none;html=1;rounded=0;fontSize=20;entryX=0;entryY=0;entryDx=0;entryDy=0;exitX=1;exitY=1;exitDx=0;exitDy=0;" edge="1" parent="1" source="40" target="40">
                    <mxGeometry width="50" height="50" relative="1" as="geometry">
                        <mxPoint x="660" y="765" as="sourcePoint"/>
                        <mxPoint x="710" y="715" as="targetPoint"/>
                    </mxGeometry>
                </mxCell>
                <mxCell id="42" value="" style="endArrow=none;html=1;rounded=0;fontSize=20;entryX=0;entryY=1;entryDx=0;entryDy=0;exitX=1;exitY=0;exitDx=0;exitDy=0;" edge="1" parent="1" source="40" target="40">
                    <mxGeometry width="50" height="50" relative="1" as="geometry">
                        <mxPoint x="420" y="635" as="sourcePoint"/>
                        <mxPoint x="300" y="575" as="targetPoint"/>
                    </mxGeometry>
                </mxCell>
                <mxCell id="43" value="Titol" style="text;html=1;strokeColor=none;fillColor=none;align=center;verticalAlign=middle;whiteSpace=wrap;rounded=0;fontSize=20;" vertex="1" parent="1">
                    <mxGeometry x="60" y="570" width="60" height="30" as="geometry"/>
                </mxCell>
                <mxCell id="44" value="Cos" style="text;html=1;strokeColor=none;fillColor=none;align=center;verticalAlign=middle;whiteSpace=wrap;rounded=0;fontSize=18;" vertex="1" parent="1">
                    <mxGeometry x="60" y="600" width="60" height="30" as="geometry"/>
                </mxCell>
                <mxCell id="45" value="data" style="text;html=1;strokeColor=none;fillColor=none;align=center;verticalAlign=middle;whiteSpace=wrap;rounded=0;fontSize=18;" vertex="1" parent="1">
                    <mxGeometry x="120" y="550" width="60" height="30" as="geometry"/>
                </mxCell>
                <mxCell id="46" value="" style="rounded=1;whiteSpace=wrap;html=1;" vertex="1" parent="1">
                    <mxGeometry x="60" y="630" width="120" height="40" as="geometry"/>
                </mxCell>
                <mxCell id="47" value="&lt;font style=&quot;font-size: 15px&quot;&gt;Més Informació&lt;/font&gt;" style="text;html=1;strokeColor=none;fillColor=none;align=center;verticalAlign=middle;whiteSpace=wrap;rounded=0;fontSize=20;" vertex="1" parent="1">
                    <mxGeometry x="55" y="635" width="130" height="30" as="geometry"/>
                </mxCell>
            </root>
        </mxGraphModel>
    </diagram>
</mxfile>